<?xml version="1.0"?>
<!DOCTYPE svg PUBLIC "-//W3C//DTD SVG 1.1//EN" "http://www.w3.org/Graphics/SVG/1.1/DTD/svg11.dtd">
<svg xmlns="http://www.w3.org/2000/svg" version="1.1" width="979.50006" height="982.5">
<defs>
<marker id="arrowStart" markerWidth="3.75" markerHeight="3.75" markerUnits="px" refX="1.875" refY="1.875">
<circle fill="Black" stroke-width="0" cx="1.875" cy="1.875" r="1.875" />
</marker>
<marker id="arrowEnd" markerWidth="7.5" markerHeight="7.5" markerUnits="px" refX="7.5" refY="3.75">
<polygon fill="Black" stroke-width="0" points="0 0 7.5 3.75 0 7.5" />
</marker>
</defs>
<g>
<g transform="translate(7.5 7.5)">
<rect fill="LightCyan" stroke="Black" stroke-width="1.875" x="0" y="0" width="120" height="33.75" rx="3.75" ry="3.75" />
<a href="./StructureDefinition-MGFinding.html" target="_top">
<text x="60" y="22.5" text-anchor="middle">MG Finding</text>
</a>
</g>
<line stroke="Black" stroke-width="1.875" marker-end="url(#arrowEnd)" x1="142.5" y1="24.375" x2="187.5" y2="24.375" />
<text x="146.25" y="20.625" text-anchor="left"></text>
<line stroke="Black" stroke-width="1.875" marker-start="url(#arrowStart)" x1="127.5" y1="24.375" x2="142.5" y2="24.375" />
<line stroke="Black" stroke-width="1.875" x1="142.5" y1="24.375" x2="142.5" y2="24.375" />
</g>
<g>
<g transform="translate(187.5 7.5)">
<rect fill="White" stroke="Black" stroke-width="1.875" x="0" y="0" width="120" height="33.75" rx="3.75" ry="3.75" />
<text x="60" y="22.5" text-anchor="middle">MG Density</text>
</g>
<line stroke="Black" stroke-width="1.875" marker-end="url(#arrowEnd)" x1="322.5" y1="33.75" x2="367.5" y2="33.75" />
<text x="326.25" y="30" text-anchor="left">0..1</text>
<line stroke="Black" stroke-width="1.875" marker-end="url(#arrowEnd)" x1="322.5" y1="93.75" x2="367.5" y2="93.75" />
<text x="326.25" y="90" text-anchor="left">0..*</text>
<line stroke="Black" stroke-width="1.875" marker-end="url(#arrowEnd)" x1="322.5" y1="153.75" x2="367.5" y2="153.75" />
<text x="326.25" y="150" text-anchor="left">0..1</text>
<line stroke="Black" stroke-width="1.875" marker-end="url(#arrowEnd)" x1="322.5" y1="204.375" x2="367.5" y2="204.375" />
<text x="326.25" y="200.625" text-anchor="left">1..1</text>
<line stroke="Black" stroke-width="1.875" marker-end="url(#arrowEnd)" x1="322.5" y1="255" x2="367.5" y2="255" />
<text x="326.25" y="251.25" text-anchor="left">0..*</text>
<line stroke="Black" stroke-width="1.875" marker-end="url(#arrowEnd)" x1="322.5" y1="315" x2="367.5" y2="315" />
<text x="326.25" y="311.25" text-anchor="left">0..1</text>
<line stroke="Black" stroke-width="1.875" marker-end="url(#arrowEnd)" x1="322.5" y1="375" x2="367.5" y2="375" />
<text x="326.25" y="371.25" text-anchor="left">1..1</text>
<line stroke="Black" stroke-width="1.875" marker-end="url(#arrowEnd)" x1="322.5" y1="435" x2="367.5" y2="435" />
<text x="326.25" y="431.25" text-anchor="left">0..1</text>
<line stroke="Black" stroke-width="1.875" marker-end="url(#arrowEnd)" x1="322.5" y1="495" x2="367.5" y2="495" />
<text x="326.25" y="491.25" text-anchor="left">0..*</text>
<line stroke="Black" stroke-width="1.875" marker-end="url(#arrowEnd)" x1="322.5" y1="555" x2="367.5" y2="555" />
<text x="326.25" y="551.25" text-anchor="left">0..*</text>
<line stroke="Black" stroke-width="1.875" marker-end="url(#arrowEnd)" x1="322.5" y1="633.75" x2="367.5" y2="633.75" />
<text x="326.25" y="630" text-anchor="left">0..1</text>
<line stroke="Black" stroke-width="1.875" marker-end="url(#arrowEnd)" x1="322.5" y1="693.75" x2="367.5" y2="693.75" />
<text x="326.25" y="690" text-anchor="left">0..1</text>
<line stroke="Black" stroke-width="1.875" marker-end="url(#arrowEnd)" x1="322.5" y1="753.75" x2="367.5" y2="753.75" />
<text x="326.25" y="750" text-anchor="left">0..1</text>
<line stroke="Black" stroke-width="1.875" marker-end="url(#arrowEnd)" x1="322.5" y1="813.75" x2="367.5" y2="813.75" />
<text x="326.25" y="810" text-anchor="left">0..1</text>
<line stroke="Black" stroke-width="1.875" marker-end="url(#arrowEnd)" x1="322.5" y1="864.375" x2="367.5" y2="864.375" />
<text x="326.25" y="860.625" text-anchor="left">0..*</text>
<line stroke="Black" stroke-width="1.875" marker-end="url(#arrowEnd)" x1="322.5" y1="933.75" x2="367.5" y2="933.75" />
<text x="326.25" y="930" text-anchor="left">0..1</text>
<line stroke="Black" stroke-width="1.875" marker-start="url(#arrowStart)" x1="307.5" y1="24.375" x2="322.5" y2="24.375" />
<line stroke="Black" stroke-width="1.875" x1="322.5" y1="24.375" x2="322.5" y2="933.75" />
</g>
<g>
<g transform="translate(367.5 7.5)">
<rect fill="LightCyan" stroke="Black" stroke-width="1.875" x="0" y="0" width="120" height="52.5" rx="3.75" ry="3.75" />
<a href="./StructureDefinition-AssociatedFeatures.html" target="_top">
<text x="60" y="22.5" text-anchor="middle">Associated</text>
</a>
<a href="./StructureDefinition-AssociatedFeatures.html" target="_top">
<text x="60" y="41.25" text-anchor="middle">Features</text>
</a>
</g>
</g>
<g>
<g transform="translate(367.5 67.5)">
<rect fill="LightCyan" stroke="Black" stroke-width="1.875" x="0" y="0" width="120" height="52.5" rx="3.75" ry="3.75" />
<a href="./StructureDefinition-ConsistentWith.html" target="_top">
<text x="60" y="22.5" text-anchor="middle">Consistent</text>
</a>
<a href="./StructureDefinition-ConsistentWith.html" target="_top">
<text x="60" y="41.25" text-anchor="middle">With</text>
</a>
</g>
</g>
<g>
<g transform="translate(367.5 127.5)">
<a href="StructureDefinition-MGAbnormalityDensity-definitions.html#Observation.component:biRadsAssessmentCategory" target="_top">
<rect fill="LightYellow" stroke="Black" stroke-width="1.875" x="0" y="0" width="287.99997" height="52.5" rx="3.75" ry="3.75" />
</a>
<a href="StructureDefinition-MGAbnormalityDensity-definitions.html#Observation.component:biRadsAssessmentCategory" target="_top">
<text x="143.99998" y="22.5" text-anchor="middle">BiRads Assessment Category</text>
</a>
<a href="StructureDefinition-MGAbnormalityDensity-definitions.html#Observation.component:biRadsAssessmentCategory" target="_top">
<text x="143.99998" y="41.25" text-anchor="middle">CodeableConcept</text>
</a>
</g>
<line stroke="Black" stroke-width="1.875" marker-end="url(#arrowEnd)" x1="670.49994" y1="153.75" x2="715.49994" y2="153.75" />
<line stroke="Black" stroke-width="1.875" marker-start="url(#arrowStart)" x1="655.49994" y1="153.75" x2="670.49994" y2="153.75" />
<line stroke="Black" stroke-width="1.875" x1="670.49994" y1="153.75" x2="670.49994" y2="153.75" />
</g>
<g>
<g transform="translate(715.49994 127.5)">
<rect fill="LightGreen" stroke="Black" stroke-width="1.875" x="0" y="0" width="99" height="52.5" rx="3.75" ry="3.75" />
<a href="./ValueSet-BiRadsAssessmentCategoriesVS.html" target="_top">
<text x="49.5" y="22.5" text-anchor="middle">BiRads</text>
</a>
<a href="./ValueSet-BiRadsAssessmentCategoriesVS.html" target="_top">
<text x="49.5" y="41.25" text-anchor="middle">ValueSet</text>
</a>
</g>
</g>
<g>
<g transform="translate(367.5 187.5)">
<a href="StructureDefinition-MGAbnormalityDensity-definitions.html#Observation.bodySite.extension:breastBodyLocation" target="_top">
<rect fill="LightSkyBlue" stroke="Black" stroke-width="1.875" x="0" y="0" width="225" height="33.75" rx="3.75" ry="3.75" />
</a>
<a href="StructureDefinition-MGAbnormalityDensity-definitions.html#Observation.bodySite.extension:breastBodyLocation" target="_top">
<text x="112.5" y="22.5" text-anchor="middle">Breast Body Location</text>
</a>
</g>
<line stroke="Black" stroke-width="1.875" marker-end="url(#arrowEnd)" x1="607.5" y1="204.375" x2="652.5" y2="204.375" />
<line stroke="Black" stroke-width="1.875" marker-start="url(#arrowStart)" x1="592.5" y1="204.375" x2="607.5" y2="204.375" />
<line stroke="Black" stroke-width="1.875" x1="607.5" y1="204.375" x2="607.5" y2="204.375" />
</g>
<g>
<g transform="translate(652.5 187.5)">
<rect fill="LightBlue" stroke="Black" stroke-width="1.875" x="0" y="0" width="183" height="33.75" rx="3.75" ry="3.75" />
<a href="./StructureDefinition-BreastBodyLocationExtension.html" target="_top">
<text x="91.5" y="22.5" text-anchor="middle">Breast Body Loc.</text>
</a>
</g>
</g>
<g>
<g transform="translate(367.5 228.75)">
<a href="StructureDefinition-MGAbnormalityDensity-definitions.html#Observation.component:correspondsWith" target="_top">
<rect fill="LightYellow" stroke="Black" stroke-width="1.875" x="0" y="0" width="183" height="52.5" rx="3.75" ry="3.75" />
</a>
<a href="StructureDefinition-MGAbnormalityDensity-definitions.html#Observation.component:correspondsWith" target="_top">
<text x="91.5" y="22.5" text-anchor="middle">Corresponds With</text>
</a>
<a href="StructureDefinition-MGAbnormalityDensity-definitions.html#Observation.component:correspondsWith" target="_top">
<text x="91.5" y="41.25" text-anchor="middle">CodeableConcept</text>
</a>
</g>
<line stroke="Black" stroke-width="1.875" marker-end="url(#arrowEnd)" x1="565.5" y1="255" x2="610.5" y2="255" />
<line stroke="Black" stroke-width="1.875" marker-start="url(#arrowStart)" x1="550.5" y1="255" x2="565.5" y2="255" />
<line stroke="Black" stroke-width="1.875" x1="565.5" y1="255" x2="565.5" y2="255" />
</g>
<g>
<g transform="translate(610.5 228.75)">
<rect fill="LightGreen" stroke="Black" stroke-width="1.875" x="0" y="0" width="172.5" height="52.5" rx="3.75" ry="3.75" />
<a href="./ValueSet-CorrespondsWithVS.html" target="_top">
<text x="86.25" y="22.5" text-anchor="middle">CorrespondsWith</text>
</a>
<a href="./ValueSet-CorrespondsWithVS.html" target="_top">
<text x="86.25" y="41.25" text-anchor="middle">ValueSet</text>
</a>
</g>
</g>
<g>
<g transform="translate(367.5 288.75)">
<a href="StructureDefinition-MGAbnormalityDensity-definitions.html#Observation.component:mgDensity" target="_top">
<rect fill="LightYellow" stroke="Black" stroke-width="1.875" x="0" y="0" width="172.5" height="52.5" rx="3.75" ry="3.75" />
</a>
<a href="StructureDefinition-MGAbnormalityDensity-definitions.html#Observation.component:mgDensity" target="_top">
<text x="86.25" y="22.5" text-anchor="middle">Density</text>
</a>
<a href="StructureDefinition-MGAbnormalityDensity-definitions.html#Observation.component:mgDensity" target="_top">
<text x="86.25" y="41.25" text-anchor="middle">CodeableConcept</text>
</a>
</g>
<line stroke="Black" stroke-width="1.875" marker-end="url(#arrowEnd)" x1="555" y1="305.625" x2="600" y2="305.625" />
<line stroke="Black" stroke-width="1.875" marker-start="url(#arrowStart)" x1="540" y1="315" x2="555" y2="315" />
<line stroke="Black" stroke-width="1.875" x1="555" y1="305.625" x2="555" y2="315" />
</g>
<g>
<g transform="translate(600 288.75)">
<rect fill="LightGreen" stroke="Black" stroke-width="1.875" x="0" y="0" width="214.5" height="33.75" rx="3.75" ry="3.75" />
<a href="./ValueSet-MGDensityVS.html" target="_top">
<text x="107.25" y="22.5" text-anchor="middle">MG Density ValueSet</text>
</a>
</g>
</g>
<g>
<g transform="translate(367.5 348.75)">
<a href="StructureDefinition-MGAbnormalityDensity-definitions.html#Observation.component:densityType" target="_top">
<rect fill="LightYellow" stroke="Black" stroke-width="1.875" x="0" y="0" width="172.5" height="52.5" rx="3.75" ry="3.75" />
</a>
<a href="StructureDefinition-MGAbnormalityDensity-definitions.html#Observation.component:densityType" target="_top">
<text x="86.25" y="22.5" text-anchor="middle">Density Type</text>
</a>
<a href="StructureDefinition-MGAbnormalityDensity-definitions.html#Observation.component:densityType" target="_top">
<text x="86.25" y="41.25" text-anchor="middle">CodeableConcept</text>
</a>
</g>
<line stroke="Black" stroke-width="1.875" marker-end="url(#arrowEnd)" x1="555" y1="375" x2="600" y2="375" />
<line stroke="Black" stroke-width="1.875" marker-start="url(#arrowStart)" x1="540" y1="375" x2="555" y2="375" />
<line stroke="Black" stroke-width="1.875" x1="555" y1="375" x2="555" y2="375" />
</g>
<g>
<g transform="translate(600 348.75)">
<rect fill="LightGreen" stroke="Black" stroke-width="1.875" x="0" y="0" width="172.5" height="52.5" rx="3.75" ry="3.75" />
<a href="./ValueSet-MGAbnormalityDensityTypeVS.html" target="_top">
<text x="86.25" y="22.5" text-anchor="middle">MG Density Type</text>
</a>
<a href="./ValueSet-MGAbnormalityDensityTypeVS.html" target="_top">
<text x="86.25" y="41.25" text-anchor="middle">ValueSet</text>
</a>
</g>
</g>
<g>
<g transform="translate(367.5 408.75)">
<a href="StructureDefinition-MGAbnormalityDensity-definitions.html#Observation.component:margin" target="_top">
<rect fill="LightYellow" stroke="Black" stroke-width="1.875" x="0" y="0" width="172.5" height="52.5" rx="3.75" ry="3.75" />
</a>
<a href="StructureDefinition-MGAbnormalityDensity-definitions.html#Observation.component:margin" target="_top">
<text x="86.25" y="22.5" text-anchor="middle">Margin</text>
</a>
<a href="StructureDefinition-MGAbnormalityDensity-definitions.html#Observation.component:margin" target="_top">
<text x="86.25" y="41.25" text-anchor="middle">CodeableConcept</text>
</a>
</g>
<line stroke="Black" stroke-width="1.875" marker-end="url(#arrowEnd)" x1="555" y1="425.625" x2="600" y2="425.625" />
<line stroke="Black" stroke-width="1.875" marker-start="url(#arrowStart)" x1="540" y1="435" x2="555" y2="435" />
<line stroke="Black" stroke-width="1.875" x1="555" y1="425.625" x2="555" y2="435" />
</g>
<g>
<g transform="translate(600 408.75)">
<rect fill="LightGreen" stroke="Black" stroke-width="1.875" x="0" y="0" width="162" height="33.75" rx="3.75" ry="3.75" />
<a href="./ValueSet-MarginVS.html" target="_top">
<text x="81" y="22.5" text-anchor="middle">MarginValueSet</text>
</a>
</g>
</g>
<g>
<g transform="translate(367.5 468.75)">
<a href="StructureDefinition-MGAbnormalityDensity-definitions.html#Observation.component:notPreviouslySeen" target="_top">
<rect fill="LightYellow" stroke="Black" stroke-width="1.875" x="0" y="0" width="214.5" height="52.5" rx="3.75" ry="3.75" />
</a>
<a href="StructureDefinition-MGAbnormalityDensity-definitions.html#Observation.component:notPreviouslySeen" target="_top">
<text x="107.25" y="22.5" text-anchor="middle">Not Previously Seen</text>
</a>
<a href="StructureDefinition-MGAbnormalityDensity-definitions.html#Observation.component:notPreviouslySeen" target="_top">
<text x="107.25" y="41.25" text-anchor="middle">CodeableConcept</text>
</a>
</g>
<line stroke="Black" stroke-width="1.875" marker-end="url(#arrowEnd)" x1="597" y1="495" x2="642" y2="495" />
<line stroke="Black" stroke-width="1.875" marker-start="url(#arrowStart)" x1="582" y1="495" x2="597" y2="495" />
<line stroke="Black" stroke-width="1.875" x1="597" y1="495" x2="597" y2="495" />
</g>
<g>
<g transform="translate(642 468.75)">
<rect fill="LightGreen" stroke="Black" stroke-width="1.875" x="0" y="0" width="193.5" height="52.5" rx="3.75" ry="3.75" />
<a href="./ValueSet-NotPreviouslySeenVS.html" target="_top">
<text x="96.75" y="22.5" text-anchor="middle">NotPreviouslySeen</text>
</a>
<a href="./ValueSet-NotPreviouslySeenVS.html" target="_top">
<text x="96.75" y="41.25" text-anchor="middle">ValueSet</text>
</a>
</g>
</g>
<g>
<g transform="translate(367.5 528.75)">
<a href="StructureDefinition-MGAbnormalityDensity-definitions.html#Observation.component:observedChanges" target="_top">
<rect fill="LightYellow" stroke="Black" stroke-width="1.875" x="0" y="0" width="330" height="52.5" rx="3.75" ry="3.75" />
</a>
<a href="StructureDefinition-MGAbnormalityDensity-definitions.html#Observation.component:observedChanges" target="_top">
<text x="165" y="22.5" text-anchor="middle">Observed Change In Abnormality</text>
</a>
<a href="StructureDefinition-MGAbnormalityDensity-definitions.html#Observation.component:observedChanges" target="_top">
<text x="165" y="41.25" text-anchor="middle">CodeableConcept</text>
</a>
</g>
<line stroke="Black" stroke-width="1.875" marker-end="url(#arrowEnd)" x1="712.5" y1="564.375" x2="757.5" y2="564.375" />
<line stroke="Black" stroke-width="1.875" marker-start="url(#arrowStart)" x1="697.5" y1="555" x2="712.5" y2="555" />
<line stroke="Black" stroke-width="1.875" x1="712.5" y1="555" x2="712.5" y2="564.375" />
</g>
<g>
<g transform="translate(757.5 528.75)">
<rect fill="LightGreen" stroke="Black" stroke-width="1.875" x="0" y="0" width="99" height="71.25" rx="3.75" ry="3.75" />
<a href="./ValueSet-ObservedChangesVS.html" target="_top">
<text x="49.5" y="22.5" text-anchor="middle">Observed</text>
</a>
<a href="./ValueSet-ObservedChangesVS.html" target="_top">
<text x="49.5" y="41.25" text-anchor="middle">Change</text>
</a>
<a href="./ValueSet-ObservedChangesVS.html" target="_top">
<text x="49.5" y="60" text-anchor="middle">ValueSet</text>
</a>
</g>
</g>
<g>
<g transform="translate(367.5 607.5)">
<a href="StructureDefinition-MGAbnormalityDensity-definitions.html#Observation.component:observedCount" target="_top">
<rect fill="LightYellow" stroke="Black" stroke-width="1.875" x="0" y="0" width="193.5" height="52.5" rx="3.75" ry="3.75" />
</a>
<a href="StructureDefinition-MGAbnormalityDensity-definitions.html#Observation.component:observedCount" target="_top">
<text x="96.75" y="22.5" text-anchor="middle">Observed Count</text>
</a>
<a href="StructureDefinition-MGAbnormalityDensity-definitions.html#Observation.component:observedCount" target="_top">
<text x="96.75" y="41.25" text-anchor="middle">Quantity or Range</text>
</a>
</g>
</g>
<g>
<g transform="translate(367.5 667.5)">
<a href="StructureDefinition-MGAbnormalityDensity-definitions.html#Observation.component:observedRegion" target="_top">
<rect fill="LightYellow" stroke="Black" stroke-width="1.875" x="0" y="0" width="193.5" height="52.5" rx="3.75" ry="3.75" />
</a>
<a href="StructureDefinition-MGAbnormalityDensity-definitions.html#Observation.component:observedRegion" target="_top">
<text x="96.75" y="22.5" text-anchor="middle">Observed Region</text>
</a>
<a href="StructureDefinition-MGAbnormalityDensity-definitions.html#Observation.component:observedRegion" target="_top">
<text x="96.75" y="41.25" text-anchor="middle">Quantity or Range</text>
</a>
</g>
</g>
<g>
<g transform="translate(367.5 727.5)">
<a href="StructureDefinition-MGAbnormalityDensity-definitions.html#Observation.component:observedSize" target="_top">
<rect fill="LightYellow" stroke="Black" stroke-width="1.875" x="0" y="0" width="193.5" height="52.5" rx="3.75" ry="3.75" />
</a>
<a href="StructureDefinition-MGAbnormalityDensity-definitions.html#Observation.component:observedSize" target="_top">
<text x="96.75" y="22.5" text-anchor="middle">Observed Size</text>
</a>
<a href="StructureDefinition-MGAbnormalityDensity-definitions.html#Observation.component:observedSize" target="_top">
<text x="96.75" y="41.25" text-anchor="middle">Quantity or Range</text>
</a>
</g>
</g>
<g>
<g transform="translate(367.5 787.5)">
<a href="StructureDefinition-MGAbnormalityDensity-definitions.html#Observation.component:orientation" target="_top">
<rect fill="LightYellow" stroke="Black" stroke-width="1.875" x="0" y="0" width="172.5" height="52.5" rx="3.75" ry="3.75" />
</a>
<a href="StructureDefinition-MGAbnormalityDensity-definitions.html#Observation.component:orientation" target="_top">
<text x="86.25" y="22.5" text-anchor="middle">Orientation</text>
</a>
<a href="StructureDefinition-MGAbnormalityDensity-definitions.html#Observation.component:orientation" target="_top">
<text x="86.25" y="41.25" text-anchor="middle">CodeableConcept</text>
</a>
</g>
<line stroke="Black" stroke-width="1.875" marker-end="url(#arrowEnd)" x1="555" y1="804.375" x2="600" y2="804.375" />
<line stroke="Black" stroke-width="1.875" marker-start="url(#arrowStart)" x1="540" y1="813.75" x2="555" y2="813.75" />
<line stroke="Black" stroke-width="1.875" x1="555" y1="804.375" x2="555" y2="813.75" />
</g>
<g>
<g transform="translate(600 787.5)">
<rect fill="LightGreen" stroke="Black" stroke-width="1.875" x="0" y="0" width="225" height="33.75" rx="3.75" ry="3.75" />
<a href="./ValueSet-OrientationVS.html" target="_top">
<text x="112.5" y="22.5" text-anchor="middle">Orientation ValueSet</text>
</a>
</g>
</g>
<g>
<g transform="translate(367.5 847.5)">
<a href="StructureDefinition-MGAbnormalityDensity-definitions.html#Observation.extension:serviceRecommendation" target="_top">
<rect fill="LightSkyBlue" stroke="Black" stroke-width="1.875" x="0" y="0" width="246" height="33.75" rx="3.75" ry="3.75" />
</a>
<a href="StructureDefinition-MGAbnormalityDensity-definitions.html#Observation.extension:serviceRecommendation" target="_top">
<text x="123" y="22.5" text-anchor="middle">Service Recommentation</text>
</a>
</g>
<line stroke="Black" stroke-width="1.875" marker-end="url(#arrowEnd)" x1="628.5" y1="873.75" x2="673.5" y2="873.75" />
<line stroke="Black" stroke-width="1.875" marker-start="url(#arrowStart)" x1="613.5" y1="864.375" x2="628.5" y2="864.375" />
<line stroke="Black" stroke-width="1.875" x1="628.5" y1="864.375" x2="628.5" y2="873.75" />
</g>
<g>
<g transform="translate(673.5 847.5)">
<rect fill="LightBlue" stroke="Black" stroke-width="1.875" x="0" y="0" width="246" height="52.5" rx="3.75" ry="3.75" />
<a href="./StructureDefinition-ServiceRecommendationExtension.html" target="_top">
<text x="123" y="22.5" text-anchor="middle">Service Recommendation</text>
</a>
<a href="./StructureDefinition-ServiceRecommendationExtension.html" target="_top">
<text x="123" y="41.25" text-anchor="middle">Extension</text>
</a>
</g>
</g>
<g>
<g transform="translate(367.5 907.5)">
<a href="StructureDefinition-MGAbnormalityDensity-definitions.html#Observation.component:shape" target="_top">
<rect fill="LightYellow" stroke="Black" stroke-width="1.875" x="0" y="0" width="172.5" height="52.5" rx="3.75" ry="3.75" />
</a>
<a href="StructureDefinition-MGAbnormalityDensity-definitions.html#Observation.component:shape" target="_top">
<text x="86.25" y="22.5" text-anchor="middle">Shape</text>
</a>
<a href="StructureDefinition-MGAbnormalityDensity-definitions.html#Observation.component:shape" target="_top">
<text x="86.25" y="41.25" text-anchor="middle">CodeableConcept</text>
</a>
</g>
<line stroke="Black" stroke-width="1.875" marker-end="url(#arrowEnd)" x1="555" y1="933.75" x2="600" y2="933.75" />
<line stroke="Black" stroke-width="1.875" marker-start="url(#arrowStart)" x1="540" y1="933.75" x2="555" y2="933.75" />
<line stroke="Black" stroke-width="1.875" x1="555" y1="933.75" x2="555" y2="933.75" />
</g>
<g>
<g transform="translate(600 907.5)">
<rect fill="LightGreen" stroke="Black" stroke-width="1.875" x="0" y="0" width="99" height="52.5" rx="3.75" ry="3.75" />
<a href="./ValueSet-ShapeVS.html" target="_top">
<text x="49.5" y="22.5" text-anchor="middle">Shape</text>
</a>
<a href="./ValueSet-ShapeVS.html" target="_top">
<text x="49.5" y="41.25" text-anchor="middle">ValueSet</text>
</a>
</g>
</g>
</svg>
