<?xml version="1.0"?>
<!DOCTYPE svg PUBLIC "-//W3C//DTD SVG 1.1//EN" "http://www.w3.org/Graphics/SVG/1.1/DTD/svg11.dtd">
<svg xmlns="http://www.w3.org/2000/svg" version="1.1" width="595.5" height="1575">
<defs>
<marker id="arrowStart" markerWidth="3.75" markerHeight="3.75" markerUnits="px" refX="1.875" refY="1.875">
<circle fill="Black" stroke-width="0" cx="1.875" cy="1.875" r="1.875" />
</marker>
<marker id="arrowEnd" markerWidth="7.5" markerHeight="7.5" markerUnits="px" refX="7.5" refY="3.75">
<polygon fill="Black" stroke-width="0" points="0 0 7.5 3.75 0 7.5" />
</marker>
</defs>
<g>
<g transform="translate(7.5 7.5)">
<rect fill="LightBlue" stroke="Black" stroke-width="1.875" x="0" y="0" width="214.5" height="33.75" rx="3.75" ry="3.75" />
<a href="./StructureDefinition-BreastRadMammoAbnormalityArchitecturalDistortion.html" target="_blank">
<title>'BreastRadMammoAbnormalityArchitecturalDistortion'</title>
<text x="107.25" y="22.5" text-anchor="middle">Mg Arch. Distortion</text>
</a>
</g>
<g transform="translate(7.5 48.75)">
<rect fill="LightBlue" stroke="Black" stroke-width="1.875" x="0" y="0" width="141" height="33.75" rx="3.75" ry="3.75" />
<a href="./StructureDefinition-BreastRadMammoAbnormalityAsymmetry.html" target="_blank">
<title>'BreastRadMammoAbnormalityAsymmetry'</title>
<text x="70.5" y="22.5" text-anchor="middle">Mg Asymmetry</text>
</a>
</g>
<g transform="translate(7.5 90)">
<rect fill="LightBlue" stroke="Black" stroke-width="1.875" x="0" y="0" width="99" height="33.75" rx="3.75" ry="3.75" />
<a href="./StructureDefinition-BreastRadMammoAbnormalityCalcification.html" target="_blank">
<title>'BreastRadMammoAbnormalityCalcification'</title>
<text x="49.5" y="22.5" text-anchor="middle">Mg Calc.</text>
</a>
</g>
<g transform="translate(7.5 131.25)">
<rect fill="LightBlue" stroke="Black" stroke-width="1.875" x="0" y="0" width="88.5" height="33.75" rx="3.75" ry="3.75" />
<a href="./StructureDefinition-BreastRadMammoAbnormalityCyst.html" target="_blank">
<title>'BreastRadMammoAbnormalityCyst'</title>
<text x="44.25" y="22.5" text-anchor="middle">Mg Cyst</text>
</a>
</g>
<g transform="translate(7.5 172.5)">
<rect fill="LightBlue" stroke="Black" stroke-width="1.875" x="0" y="0" width="120" height="33.75" rx="3.75" ry="3.75" />
<a href="./StructureDefinition-BreastRadMammoAbnormalityDensity.html" target="_blank">
<title>'BreastRadMammoAbnormalityDensity'</title>
<text x="60" y="22.5" text-anchor="middle">Mg Density</text>
</a>
</g>
<g transform="translate(7.5 213.75)">
<rect fill="LightBlue" stroke="Black" stroke-width="1.875" x="0" y="0" width="88.5" height="33.75" rx="3.75" ry="3.75" />
<a href="./StructureDefinition-BreastRadMammoAbnormalityDuct.html" target="_blank">
<title>'BreastRadMammoAbnormalityDuct'</title>
<text x="44.25" y="22.5" text-anchor="middle">Mg Duct</text>
</a>
</g>
<g transform="translate(7.5 255)">
<rect fill="LightBlue" stroke="Black" stroke-width="1.875" x="0" y="0" width="172.5" height="33.75" rx="3.75" ry="3.75" />
<a href="./StructureDefinition-BreastRadMammoAbnormalityFatNecrosis.html" target="_blank">
<title>'BreastRadMammoAbnormalityFatNecrosis'</title>
<text x="86.25" y="22.5" text-anchor="middle">Mg Fat Necrosis</text>
</a>
</g>
<g transform="translate(7.5 296.25)">
<rect fill="LightBlue" stroke="Black" stroke-width="1.875" x="0" y="0" width="172.5" height="33.75" rx="3.75" ry="3.75" />
<a href="./StructureDefinition-BreastRadMammoAbnormalityFibroadenoma.html" target="_blank">
<title>'BreastRadMammoAbnormalityFibroadenoma'</title>
<text x="86.25" y="22.5" text-anchor="middle">Mg Fibroadenoma</text>
</a>
</g>
<g transform="translate(7.5 337.5)">
<rect fill="LightBlue" stroke="Black" stroke-width="1.875" x="0" y="0" width="151.49998" height="33.75" rx="3.75" ry="3.75" />
<a href="./StructureDefinition-BreastRadMammoAbnormalityLymphNode.html" target="_blank">
<title>'BreastRadMammoAbnormalityLymphNode'</title>
<text x="75.74999" y="22.5" text-anchor="middle">Mg Lymph Node</text>
</a>
</g>
<g transform="translate(7.5 378.75)">
<rect fill="LightBlue" stroke="Black" stroke-width="1.875" x="0" y="0" width="130.5" height="52.5" rx="3.75" ry="3.75" />
<a href="./StructureDefinition-BreastRadMammoAxillaryAdenopathy.html" target="_blank">
<title>'BreastRadMammoAxillaryAdenopathy'</title>
<text x="65.25" y="22.5" text-anchor="middle">Mg Axillary</text>
</a>
<a href="./StructureDefinition-BreastRadMammoAxillaryAdenopathy.html" target="_blank">
<title>'BreastRadMammoAxillaryAdenopathy'</title>
<text x="65.25" y="41.25" text-anchor="middle">Adenopathy</text>
</a>
</g>
<g transform="translate(7.5 438.75)">
<rect fill="LightBlue" stroke="Black" stroke-width="1.875" x="0" y="0" width="88.5" height="33.75" rx="3.75" ry="3.75" />
<a href="./StructureDefinition-BreastRadMammoMass.html" target="_blank">
<title>'BreastRadMammoMass'</title>
<text x="44.25" y="22.5" text-anchor="middle">Mg Mass</text>
</a>
</g>
<g transform="translate(7.5 480)">
<rect fill="LightBlue" stroke="Black" stroke-width="1.875" x="0" y="0" width="225" height="33.75" rx="3.75" ry="3.75" />
<a href="./StructureDefinition-BreastRadMammoNippleRetraction.html" target="_blank">
<title>'BreastRadMammoNippleRetraction'</title>
<text x="112.5" y="22.5" text-anchor="middle">Mg Nipple Retraction</text>
</a>
</g>
<g transform="translate(7.5 521.25)">
<rect fill="LightBlue" stroke="Black" stroke-width="1.875" x="0" y="0" width="162" height="33.75" rx="3.75" ry="3.75" />
<a href="./StructureDefinition-BreastRadMammoSkinLesion.html" target="_blank">
<title>'BreastRadMammoSkinLesion'</title>
<text x="81" y="22.5" text-anchor="middle">Mg Skin Lesion</text>
</a>
</g>
<g transform="translate(7.5 562.5)">
<rect fill="LightBlue" stroke="Black" stroke-width="1.875" x="0" y="0" width="203.99998" height="33.75" rx="3.75" ry="3.75" />
<a href="./StructureDefinition-BreastRadMammoSkinRetraction.html" target="_blank">
<title>'BreastRadMammoSkinRetraction'</title>
<text x="101.99999" y="22.5" text-anchor="middle">Mg Skin Retraction</text>
</a>
</g>
<g transform="translate(7.5 603.75)">
<rect fill="LightBlue" stroke="Black" stroke-width="1.875" x="0" y="0" width="203.99998" height="33.75" rx="3.75" ry="3.75" />
<a href="./StructureDefinition-BreastRadMammoSkinThickening.html" target="_blank">
<title>'BreastRadMammoSkinThickening'</title>
<text x="101.99999" y="22.5" text-anchor="middle">Mg Skin Thickening</text>
</a>
</g>
<g transform="translate(7.5 645)">
<rect fill="LightBlue" stroke="Black" stroke-width="1.875" x="0" y="0" width="99" height="33.75" rx="3.75" ry="3.75" />
<a href="./StructureDefinition-BreastRadMRIMass.html" target="_blank">
<title>'BreastRadMRIMass'</title>
<text x="49.5" y="22.5" text-anchor="middle">MRI Mass</text>
</a>
</g>
<g transform="translate(7.5 686.25)">
<rect fill="LightBlue" stroke="Black" stroke-width="1.875" x="0" y="0" width="57" height="52.5" rx="3.75" ry="3.75" />
<a href="./StructureDefinition-BreastRadNMMass.html" target="_blank">
<title>'BreastRadNMMass'</title>
<text x="28.5" y="22.5" text-anchor="middle">NM</text>
</a>
<a href="./StructureDefinition-BreastRadNMMass.html" target="_blank">
<title>'BreastRadNMMass'</title>
<text x="28.5" y="41.25" text-anchor="middle">Mass</text>
</a>
</g>
<g transform="translate(7.5 746.25)">
<rect fill="LightBlue" stroke="Black" stroke-width="1.875" x="0" y="0" width="88.5" height="33.75" rx="3.75" ry="3.75" />
<a href="./StructureDefinition-BreastRadUSMass.html" target="_blank">
<title>'BreastRadUSMass'</title>
<text x="44.25" y="22.5" text-anchor="middle">US Mass</text>
</a>
</g>
<g transform="translate(7.5 787.5)">
<rect fill="LightBlue" stroke="Black" stroke-width="1.875" x="0" y="0" width="214.5" height="33.75" rx="3.75" ry="3.75" />
<a href="./StructureDefinition-MGAbnormalityArchitecturalDistortion.html" target="_blank">
<title>'MGAbnormalityArchitecturalDistortion'</title>
<text x="107.25" y="22.5" text-anchor="middle">MG Arch. Distortion</text>
</a>
</g>
<g transform="translate(7.5 828.75)">
<rect fill="LightBlue" stroke="Black" stroke-width="1.875" x="0" y="0" width="141" height="33.75" rx="3.75" ry="3.75" />
<a href="./StructureDefinition-MGAbnormalityAsymmetry.html" target="_blank">
<title>'MGAbnormalityAsymmetry'</title>
<text x="70.5" y="22.5" text-anchor="middle">MG Asymmetry</text>
</a>
</g>
<g transform="translate(7.5 870)">
<rect fill="LightBlue" stroke="Black" stroke-width="1.875" x="0" y="0" width="99" height="33.75" rx="3.75" ry="3.75" />
<a href="./StructureDefinition-MGAbnormalityCalcification.html" target="_blank">
<title>'MGAbnormalityCalcification'</title>
<text x="49.5" y="22.5" text-anchor="middle">MG Calc.</text>
</a>
</g>
<g transform="translate(7.5 911.25)">
<rect fill="LightBlue" stroke="Black" stroke-width="1.875" x="0" y="0" width="88.5" height="33.75" rx="3.75" ry="3.75" />
<a href="./StructureDefinition-MGAbnormalityCyst.html" target="_blank">
<title>'MGAbnormalityCyst'</title>
<text x="44.25" y="22.5" text-anchor="middle">MG Cyst</text>
</a>
</g>
<g transform="translate(7.5 952.5)">
<rect fill="LightBlue" stroke="Black" stroke-width="1.875" x="0" y="0" width="120" height="33.75" rx="3.75" ry="3.75" />
<a href="./StructureDefinition-MGAbnormalityDensity.html" target="_blank">
<title>'MGAbnormalityDensity'</title>
<text x="60" y="22.5" text-anchor="middle">MG Density</text>
</a>
</g>
<g transform="translate(7.5 993.75)">
<rect fill="LightBlue" stroke="Black" stroke-width="1.875" x="0" y="0" width="88.5" height="33.75" rx="3.75" ry="3.75" />
<a href="./StructureDefinition-MGAbnormalityDuct.html" target="_blank">
<title>'MGAbnormalityDuct'</title>
<text x="44.25" y="22.5" text-anchor="middle">MG Duct</text>
</a>
</g>
<g transform="translate(7.5 1035)">
<rect fill="LightBlue" stroke="Black" stroke-width="1.875" x="0" y="0" width="172.5" height="33.75" rx="3.75" ry="3.75" />
<a href="./StructureDefinition-MGAbnormalityFatNecrosis.html" target="_blank">
<title>'MGAbnormalityFatNecrosis'</title>
<text x="86.25" y="22.5" text-anchor="middle">MG Fat Necrosis</text>
</a>
</g>
<g transform="translate(7.5 1076.25)">
<rect fill="LightBlue" stroke="Black" stroke-width="1.875" x="0" y="0" width="172.5" height="33.75" rx="3.75" ry="3.75" />
<a href="./StructureDefinition-MGAbnormalityFibroadenoma.html" target="_blank">
<title>'MGAbnormalityFibroadenoma'</title>
<text x="86.25" y="22.5" text-anchor="middle">MG Fibroadenoma</text>
</a>
</g>
<g transform="translate(7.5 1117.5)">
<rect fill="LightBlue" stroke="Black" stroke-width="1.875" x="0" y="0" width="162" height="33.75" rx="3.75" ry="3.75" />
<a href="./StructureDefinition-MGAbnormalityForeignObject.html" target="_blank">
<title>'MGAbnormalityForeignObject'</title>
<text x="81" y="22.5" text-anchor="middle">Foreign Object</text>
</a>
</g>
<g transform="translate(7.5 1158.75)">
<rect fill="LightBlue" stroke="Black" stroke-width="1.875" x="0" y="0" width="151.49998" height="33.75" rx="3.75" ry="3.75" />
<a href="./StructureDefinition-MGAbnormalityLymphNode.html" target="_blank">
<title>'MGAbnormalityLymphNode'</title>
<text x="75.74999" y="22.5" text-anchor="middle">MG Lymph Node</text>
</a>
</g>
<g transform="translate(7.5 1200)">
<rect fill="LightBlue" stroke="Black" stroke-width="1.875" x="0" y="0" width="130.5" height="52.5" rx="3.75" ry="3.75" />
<a href="./StructureDefinition-MGAxillaryAdenopathy.html" target="_blank">
<title>'MGAxillaryAdenopathy'</title>
<text x="65.25" y="22.5" text-anchor="middle">MG Axillary</text>
</a>
<a href="./StructureDefinition-MGAxillaryAdenopathy.html" target="_blank">
<title>'MGAxillaryAdenopathy'</title>
<text x="65.25" y="41.25" text-anchor="middle">Adenopathy</text>
</a>
</g>
<g transform="translate(7.5 1260)">
<rect fill="LightBlue" stroke="Black" stroke-width="1.875" x="0" y="0" width="88.5" height="33.75" rx="3.75" ry="3.75" />
<a href="./StructureDefinition-MGMass.html" target="_blank">
<title>'MGMass'</title>
<text x="44.25" y="22.5" text-anchor="middle">MG Mass</text>
</a>
</g>
<g transform="translate(7.5 1301.25)">
<rect fill="LightBlue" stroke="Black" stroke-width="1.875" x="0" y="0" width="225" height="33.75" rx="3.75" ry="3.75" />
<a href="./StructureDefinition-MGNippleRetraction.html" target="_blank">
<title>'MGNippleRetraction'</title>
<text x="112.5" y="22.5" text-anchor="middle">MG Nipple Retraction</text>
</a>
</g>
<g transform="translate(7.5 1342.5)">
<rect fill="LightBlue" stroke="Black" stroke-width="1.875" x="0" y="0" width="162" height="33.75" rx="3.75" ry="3.75" />
<a href="./StructureDefinition-MGSkinLesion.html" target="_blank">
<title>'MGSkinLesion'</title>
<text x="81" y="22.5" text-anchor="middle">MG Skin Lesion</text>
</a>
</g>
<g transform="translate(7.5 1383.75)">
<rect fill="LightBlue" stroke="Black" stroke-width="1.875" x="0" y="0" width="203.99998" height="33.75" rx="3.75" ry="3.75" />
<a href="./StructureDefinition-MGSkinRetraction.html" target="_blank">
<title>'MGSkinRetraction'</title>
<text x="101.99999" y="22.5" text-anchor="middle">MG Skin Retraction</text>
</a>
</g>
<g transform="translate(7.5 1425)">
<rect fill="LightBlue" stroke="Black" stroke-width="1.875" x="0" y="0" width="203.99998" height="33.75" rx="3.75" ry="3.75" />
<a href="./StructureDefinition-MGSkinThickening.html" target="_blank">
<title>'MGSkinThickening'</title>
<text x="101.99999" y="22.5" text-anchor="middle">MG Skin Thickening</text>
</a>
</g>
<g transform="translate(7.5 1466.25)">
<rect fill="LightBlue" stroke="Black" stroke-width="1.875" x="0" y="0" width="99" height="33.75" rx="3.75" ry="3.75" />
<a href="./StructureDefinition-MRIMass.html" target="_blank">
<title>'MRIMass'</title>
<text x="49.5" y="22.5" text-anchor="middle">MRI Mass</text>
</a>
</g>
<g transform="translate(7.5 1507.5)">
<rect fill="LightBlue" stroke="Black" stroke-width="1.875" x="0" y="0" width="57" height="52.5" rx="3.75" ry="3.75" />
<a href="./StructureDefinition-NMMass.html" target="_blank">
<title>'NMMass'</title>
<text x="28.5" y="22.5" text-anchor="middle">NM</text>
</a>
<a href="./StructureDefinition-NMMass.html" target="_blank">
<title>'NMMass'</title>
<text x="28.5" y="41.25" text-anchor="middle">Mass</text>
</a>
</g>
<line stroke="Black" stroke-width="1.875" marker-end="url(#arrowEnd)" x1="262.5" y1="24.375" x2="292.5" y2="24.375" />
<line stroke="Black" stroke-width="1.875" marker-start="url(#arrowStart)" x1="222" y1="24.375" x2="262.5" y2="24.375" />
<line stroke="Black" stroke-width="1.875" marker-start="url(#arrowStart)" x1="148.5" y1="65.625" x2="262.5" y2="65.625" />
<line stroke="Black" stroke-width="1.875" marker-start="url(#arrowStart)" x1="106.5" y1="106.875" x2="262.5" y2="106.875" />
<line stroke="Black" stroke-width="1.875" marker-start="url(#arrowStart)" x1="96" y1="148.125" x2="262.5" y2="148.125" />
<line stroke="Black" stroke-width="1.875" marker-start="url(#arrowStart)" x1="127.5" y1="189.375" x2="262.5" y2="189.375" />
<line stroke="Black" stroke-width="1.875" marker-start="url(#arrowStart)" x1="96" y1="230.625" x2="262.5" y2="230.625" />
<line stroke="Black" stroke-width="1.875" marker-start="url(#arrowStart)" x1="180" y1="271.875" x2="262.5" y2="271.875" />
<line stroke="Black" stroke-width="1.875" marker-start="url(#arrowStart)" x1="180" y1="313.125" x2="262.5" y2="313.125" />
<line stroke="Black" stroke-width="1.875" marker-start="url(#arrowStart)" x1="158.99998" y1="354.375" x2="262.5" y2="354.375" />
<line stroke="Black" stroke-width="1.875" marker-start="url(#arrowStart)" x1="138" y1="405" x2="262.5" y2="405" />
<line stroke="Black" stroke-width="1.875" marker-start="url(#arrowStart)" x1="96" y1="455.625" x2="262.5" y2="455.625" />
<line stroke="Black" stroke-width="1.875" marker-start="url(#arrowStart)" x1="232.5" y1="496.875" x2="262.5" y2="496.875" />
<line stroke="Black" stroke-width="1.875" marker-start="url(#arrowStart)" x1="169.5" y1="538.125" x2="262.5" y2="538.125" />
<line stroke="Black" stroke-width="1.875" marker-start="url(#arrowStart)" x1="211.49998" y1="579.375" x2="262.5" y2="579.375" />
<line stroke="Black" stroke-width="1.875" marker-start="url(#arrowStart)" x1="211.49998" y1="620.625" x2="262.5" y2="620.625" />
<line stroke="Black" stroke-width="1.875" marker-start="url(#arrowStart)" x1="106.5" y1="661.875" x2="262.5" y2="661.875" />
<line stroke="Black" stroke-width="1.875" marker-start="url(#arrowStart)" x1="64.5" y1="712.5" x2="262.5" y2="712.5" />
<line stroke="Black" stroke-width="1.875" marker-start="url(#arrowStart)" x1="96" y1="763.125" x2="262.5" y2="763.125" />
<line stroke="Black" stroke-width="1.875" marker-start="url(#arrowStart)" x1="222" y1="804.375" x2="262.5" y2="804.375" />
<line stroke="Black" stroke-width="1.875" marker-start="url(#arrowStart)" x1="148.5" y1="845.625" x2="262.5" y2="845.625" />
<line stroke="Black" stroke-width="1.875" marker-start="url(#arrowStart)" x1="106.5" y1="886.875" x2="262.5" y2="886.875" />
<line stroke="Black" stroke-width="1.875" marker-start="url(#arrowStart)" x1="96" y1="928.125" x2="262.5" y2="928.125" />
<line stroke="Black" stroke-width="1.875" marker-start="url(#arrowStart)" x1="127.5" y1="969.375" x2="262.5" y2="969.375" />
<line stroke="Black" stroke-width="1.875" marker-start="url(#arrowStart)" x1="96" y1="1010.625" x2="262.5" y2="1010.625" />
<line stroke="Black" stroke-width="1.875" marker-start="url(#arrowStart)" x1="180" y1="1051.875" x2="262.5" y2="1051.875" />
<line stroke="Black" stroke-width="1.875" marker-start="url(#arrowStart)" x1="180" y1="1093.125" x2="262.5" y2="1093.125" />
<line stroke="Black" stroke-width="1.875" marker-start="url(#arrowStart)" x1="169.5" y1="1134.375" x2="262.5" y2="1134.375" />
<line stroke="Black" stroke-width="1.875" marker-start="url(#arrowStart)" x1="158.99998" y1="1175.625" x2="262.5" y2="1175.625" />
<line stroke="Black" stroke-width="1.875" marker-start="url(#arrowStart)" x1="138" y1="1226.25" x2="262.5" y2="1226.25" />
<line stroke="Black" stroke-width="1.875" marker-start="url(#arrowStart)" x1="96" y1="1276.875" x2="262.5" y2="1276.875" />
<line stroke="Black" stroke-width="1.875" marker-start="url(#arrowStart)" x1="232.5" y1="1318.125" x2="262.5" y2="1318.125" />
<line stroke="Black" stroke-width="1.875" marker-start="url(#arrowStart)" x1="169.5" y1="1359.375" x2="262.5" y2="1359.375" />
<line stroke="Black" stroke-width="1.875" marker-start="url(#arrowStart)" x1="211.49998" y1="1400.625" x2="262.5" y2="1400.625" />
<line stroke="Black" stroke-width="1.875" marker-start="url(#arrowStart)" x1="211.49998" y1="1441.875" x2="262.5" y2="1441.875" />
<line stroke="Black" stroke-width="1.875" marker-start="url(#arrowStart)" x1="106.5" y1="1483.125" x2="262.5" y2="1483.125" />
<line stroke="Black" stroke-width="1.875" marker-start="url(#arrowStart)" x1="64.5" y1="1533.75" x2="262.5" y2="1533.75" />
<line stroke="Black" stroke-width="1.875" x1="262.5" y1="24.375" x2="262.5" y2="1533.75" />
</g>
<g>
<g transform="translate(292.5 7.5)">
<rect fill="LightGreen" stroke="Black" stroke-width="1.875" x="0" y="0" width="183" height="33.75" rx="3.75" ry="3.75" />
<text x="91.5" y="22.5" text-anchor="middle">Breast Body Loc.</text>
</g>
</g>
<g />
</svg>
