<?xml version="1.0"?>
<!DOCTYPE svg PUBLIC "-//W3C//DTD SVG 1.1//EN" "http://www.w3.org/Graphics/SVG/1.1/DTD/svg11.dtd">
<svg xmlns="http://www.w3.org/2000/svg" version="1.1" width="705" height="165">
<defs>
<marker id="arrowStart" markerWidth="3.75" markerHeight="3.75" markerUnits="px" refX="1.875" refY="1.875">
<circle fill="Black" stroke-width="0" cx="1.875" cy="1.875" r="1.875" />
</marker>
<marker id="arrowEnd" markerWidth="7.5" markerHeight="7.5" markerUnits="px" refX="7.5" refY="3.75">
<polygon fill="Black" stroke-width="0" points="0 0 7.5 3.75 0 7.5" />
</marker>
</defs>
<g>
<g transform="translate(7.5 7.5)">
<rect fill="LightBlue" stroke="Black" stroke-width="1.875" x="0" y="0" width="120" height="33.75" rx="3.75" ry="3.75" />
<a href="./StructureDefinition-MGFinding.html" target="_blank">
<title>'MGFinding'</title>
<text x="60" y="22.5" text-anchor="middle">MG Finding</text>
</a>
</g>
<line stroke="Black" stroke-width="1.875" marker-end="url(#arrowEnd)" x1="157.5" y1="24.375" x2="187.5" y2="24.375" />
<line stroke="Black" stroke-width="1.875" marker-start="url(#arrowStart)" x1="127.5" y1="24.375" x2="157.5" y2="24.375" />
<line stroke="Black" stroke-width="1.875" x1="157.5" y1="24.375" x2="157.5" y2="24.375" />
</g>
<g>
<g transform="translate(187.5 7.5)">
<rect fill="LightGreen" stroke="Black" stroke-width="1.875" x="0" y="0" width="172.5" height="33.75" rx="3.75" ry="3.75" />
<text x="86.25" y="22.5" text-anchor="middle">MG Fibroadenoma</text>
</g>
<line stroke="Black" stroke-width="1.875" marker-end="url(#arrowEnd)" x1="390" y1="24.375" x2="420" y2="24.375" />
<line stroke="Black" stroke-width="1.875" marker-end="url(#arrowEnd)" x1="390" y1="75" x2="420" y2="75" />
<line stroke="Black" stroke-width="1.875" marker-end="url(#arrowEnd)" x1="390" y1="125.625" x2="420" y2="125.625" />
<line stroke="Black" stroke-width="1.875" marker-start="url(#arrowStart)" x1="360" y1="24.375" x2="390" y2="24.375" />
<line stroke="Black" stroke-width="1.875" x1="390" y1="24.375" x2="390" y2="125.625" />
</g>
<g>
<g transform="translate(420 7.5)">
<rect fill="LightSalmon" stroke="Black" stroke-width="1.875" x="0" y="0" width="225" height="33.75" rx="3.75" ry="3.75" />
<a href="./ValueSet-FibroadenomaVS.html" target="_blank">
<title>'FibroadenomaVS'</title>
<text x="112.5" y="22.5" text-anchor="middle">FibroadenomaValueSet</text>
</a>
</g>
<g transform="translate(420 48.75)">
<rect fill="LightSalmon" stroke="Black" stroke-width="1.875" x="0" y="0" width="151.49998" height="52.5" rx="3.75" ry="3.75" />
<a href="./StructureDefinition-AimAnnotatedImagingStudy.html" target="_blank">
<title>'AimAnnotatedImagingStudy'</title>
<text x="75.74999" y="22.5" text-anchor="middle">Annotated</text>
</a>
<a href="./StructureDefinition-AimAnnotatedImagingStudy.html" target="_blank">
<title>'AimAnnotatedImagingStudy'</title>
<text x="75.74999" y="41.25" text-anchor="middle">Imaging Study</text>
</a>
</g>
<g transform="translate(420 108.75)">
<rect fill="LightSalmon" stroke="Black" stroke-width="1.875" x="0" y="0" width="183" height="33.75" rx="3.75" ry="3.75" />
<a href="./StructureDefinition-BreastBodyLocationExtension.html" target="_blank">
<title>'BreastBodyLocationExtension'</title>
<text x="91.5" y="22.5" text-anchor="middle">Breast Body Loc.</text>
</a>
</g>
</g>
</svg>
