<?xml version="1.0"?>
<!DOCTYPE svg PUBLIC "-//W3C//DTD SVG 1.1//EN" "http://www.w3.org/Graphics/SVG/1.1/DTD/svg11.dtd">
<svg xmlns="http://www.w3.org/2000/svg" version="1.1" width="936" height="386.25">
<defs>
<marker id="arrowStart" markerWidth="3.75" markerHeight="3.75" markerUnits="px" refX="1.875" refY="1.875">
<circle fill="Black" stroke-width="0" cx="1.875" cy="1.875" r="1.875" />
</marker>
<marker id="arrowEnd" markerWidth="7.5" markerHeight="7.5" markerUnits="px" refX="7.5" refY="3.75">
<polygon fill="Black" stroke-width="0" points="0 0 7.5 3.75 0 7.5" />
</marker>
</defs>
<g>
<g>
<rect fill="LightBlue" stroke="Black" stroke-width="1.875" x="7.5" y="7.5" width="340.49997" height="33.75" rx="3.75" ry="3.75" />
<a href="./StructureDefinition-BreastRadMammoAbnormalityArchitecturalDistortion.html" target="_blank">
<title>'BreastRadMammoAbnormalityArchitecturalDistortion'</title>
<text x="15" y="30">Mg Arch. Distortion Abnormality</text>
</a>
</g>
<g>
<rect fill="LightBlue" stroke="Black" stroke-width="1.875" x="7.5" y="48.75" width="225" height="33.75" rx="3.75" ry="3.75" />
<a href="./StructureDefinition-BreastRadMammoAbnormalityCalcification.html" target="_blank">
<title>'BreastRadMammoAbnormalityCalcification'</title>
<text x="15" y="71.25">Mg Calc. Abnormality</text>
</a>
</g>
<g>
<rect fill="LightBlue" stroke="Black" stroke-width="1.875" x="7.5" y="90" width="214.5" height="33.75" rx="3.75" ry="3.75" />
<a href="./StructureDefinition-BreastRadMammoAbnormalityCyst.html" target="_blank">
<title>'BreastRadMammoAbnormalityCyst'</title>
<text x="15" y="112.5">Mg Cyst Abnormality</text>
</a>
</g>
<g>
<rect fill="LightBlue" stroke="Black" stroke-width="1.875" x="7.5" y="131.25" width="246" height="33.75" rx="3.75" ry="3.75" />
<a href="./StructureDefinition-BreastRadMammoAbnormalityDensity.html" target="_blank">
<title>'BreastRadMammoAbnormalityDensity'</title>
<text x="15" y="153.75">Mg Density Abnormality</text>
</a>
</g>
<g>
<rect fill="LightBlue" stroke="Black" stroke-width="1.875" x="7.5" y="172.5" width="214.5" height="33.75" rx="3.75" ry="3.75" />
<a href="./StructureDefinition-BreastRadMammoAbnormalityDuct.html" target="_blank">
<title>'BreastRadMammoAbnormalityDuct'</title>
<text x="15" y="195">Mg Duct Abnormality</text>
</a>
</g>
<g>
<rect fill="LightBlue" stroke="Black" stroke-width="1.875" x="7.5" y="213.75" width="298.5" height="33.75" rx="3.75" ry="3.75" />
<a href="./StructureDefinition-BreastRadMammoAbnormalityFatNecrosis.html" target="_blank">
<title>'BreastRadMammoAbnormalityFatNecrosis'</title>
<text x="15" y="236.25">Mg Fat Necrosis Abnormality</text>
</a>
</g>
<g>
<rect fill="LightBlue" stroke="Black" stroke-width="1.875" x="7.5" y="255" width="298.5" height="33.75" rx="3.75" ry="3.75" />
<a href="./StructureDefinition-BreastRadMammoAbnormalityFibroadenoma.html" target="_blank">
<title>'BreastRadMammoAbnormalityFibroadenoma'</title>
<text x="15" y="277.5">Mg Fibroadenoma Abnormality</text>
</a>
</g>
<g>
<rect fill="LightBlue" stroke="Black" stroke-width="1.875" x="7.5" y="296.25" width="277.5" height="33.75" rx="3.75" ry="3.75" />
<a href="./StructureDefinition-BreastRadMammoAbnormalityLymphNode.html" target="_blank">
<title>'BreastRadMammoAbnormalityLymphNode'</title>
<text x="15" y="318.75">Mg Lymph Node Abnormality</text>
</a>
</g>
<g>
<rect fill="LightBlue" stroke="Black" stroke-width="1.875" x="7.5" y="337.5" width="214.5" height="33.75" rx="3.75" ry="3.75" />
<a href="./StructureDefinition-BreastRadMammoMass.html" target="_blank">
<title>'BreastRadMammoMass'</title>
<text x="15" y="360">Mg Mass Abnormality</text>
</a>
</g>
<line stroke="Black" stroke-width="1.875" marker-end="url(#arrowEnd)" x1="377.99997" y1="24.375" x2="407.99997" y2="24.375" />
<line stroke="Black" stroke-width="1.875" marker-start="url(#arrowStart)" x1="347.99997" y1="24.375" x2="377.99997" y2="24.375" />
<line stroke="Black" stroke-width="1.875" marker-start="url(#arrowStart)" x1="232.5" y1="65.625" x2="377.99997" y2="65.625" />
<line stroke="Black" stroke-width="1.875" marker-start="url(#arrowStart)" x1="222" y1="106.875" x2="377.99997" y2="106.875" />
<line stroke="Black" stroke-width="1.875" marker-start="url(#arrowStart)" x1="253.5" y1="148.125" x2="377.99997" y2="148.125" />
<line stroke="Black" stroke-width="1.875" marker-start="url(#arrowStart)" x1="222" y1="189.375" x2="377.99997" y2="189.375" />
<line stroke="Black" stroke-width="1.875" marker-start="url(#arrowStart)" x1="306" y1="230.625" x2="377.99997" y2="230.625" />
<line stroke="Black" stroke-width="1.875" marker-start="url(#arrowStart)" x1="306" y1="271.875" x2="377.99997" y2="271.875" />
<line stroke="Black" stroke-width="1.875" marker-start="url(#arrowStart)" x1="285" y1="313.125" x2="377.99997" y2="313.125" />
<line stroke="Black" stroke-width="1.875" marker-start="url(#arrowStart)" x1="222" y1="354.375" x2="377.99997" y2="354.375" />
<line stroke="Black" stroke-width="1.875" x1="377.99997" y1="24.375" x2="377.99997" y2="354.375" />
</g>
<g>
<g>
<rect fill="LightGreen" stroke="Black" stroke-width="1.875" x="407.99997" y="7.5" width="162" height="33.75" rx="3.75" ry="3.75" />
<text x="415.49997" y="30">Mg Mass Margin</text>
</g>
<line stroke="Black" stroke-width="1.875" marker-end="url(#arrowEnd)" x1="600" y1="24.375" x2="630" y2="24.375" />
<line stroke="Black" stroke-width="1.875" marker-start="url(#arrowStart)" x1="570" y1="24.375" x2="600" y2="24.375" />
<line stroke="Black" stroke-width="1.875" x1="600" y1="24.375" x2="600" y2="24.375" />
</g>
<g>
<g>
<rect fill="LightSalmon" stroke="Black" stroke-width="1.875" x="630" y="7.5" width="246" height="33.75" rx="3.75" ry="3.75" />
<a href="./ValueSet-BreastRadMammoMassMarginVS.html" target="_blank">
<title>'BreastRadMammoMassMarginVS'</title>
<text x="637.5" y="30">Mg Mass MarginValueSet</text>
</a>
</g>
</g>
</svg>
