<?xml version="1.0"?>
<!DOCTYPE svg PUBLIC "-//W3C//DTD SVG 1.1//EN" "http://www.w3.org/Graphics/SVG/1.1/DTD/svg11.dtd">
<svg xmlns="http://www.w3.org/2000/svg" version="1.1" width="895.49994" height="960">
<defs>
<marker id="arrowStart" markerWidth="3.75" markerHeight="3.75" markerUnits="px" refX="1.875" refY="1.875">
<circle fill="Black" stroke-width="0" cx="1.875" cy="1.875" r="1.875" />
</marker>
<marker id="arrowEnd" markerWidth="7.5" markerHeight="7.5" markerUnits="px" refX="7.5" refY="3.75">
<polygon fill="Black" stroke-width="0" points="0 0 7.5 3.75 0 7.5" />
</marker>
</defs>
<g>
<g transform="translate(7.5 7.5)">
<rect fill="LightCyan" stroke="Black" stroke-width="1.875" x="0" y="0" width="120" height="33.75" rx="3.75" ry="3.75" />
<a href="./StructureDefinition-MGFinding.html" target="_top">
<text x="60" y="22.5" text-anchor="middle">MG Finding</text>
</a>
</g>
<line stroke="Black" stroke-width="1.875" marker-end="url(#arrowEnd)" x1="142.5" y1="24.375" x2="187.5" y2="24.375" />
<text x="146.25" y="20.625" text-anchor="left"></text>
<line stroke="Black" stroke-width="1.875" marker-start="url(#arrowStart)" x1="127.5" y1="24.375" x2="142.5" y2="24.375" />
<line stroke="Black" stroke-width="1.875" x1="142.5" y1="24.375" x2="142.5" y2="24.375" />
</g>
<g>
<g transform="translate(187.5 7.5)">
<rect fill="White" stroke="Black" stroke-width="1.875" x="0" y="0" width="57" height="33.75" rx="3.75" ry="3.75" />
<text x="28.5" y="22.5" text-anchor="middle">Duct</text>
</g>
<line stroke="Black" stroke-width="1.875" marker-end="url(#arrowEnd)" x1="259.5" y1="33.75" x2="304.5" y2="33.75" />
<text x="263.25" y="30" text-anchor="left">0..*</text>
<line stroke="Black" stroke-width="1.875" marker-end="url(#arrowEnd)" x1="259.5" y1="93.75" x2="304.5" y2="93.75" />
<text x="263.25" y="90" text-anchor="left">0..1</text>
<line stroke="Black" stroke-width="1.875" marker-end="url(#arrowEnd)" x1="259.5" y1="153.75" x2="304.5" y2="153.75" />
<text x="263.25" y="150" text-anchor="left">0..*</text>
<line stroke="Black" stroke-width="1.875" marker-end="url(#arrowEnd)" x1="259.5" y1="232.5" x2="304.5" y2="232.5" />
<text x="263.25" y="228.75" text-anchor="left">0..1</text>
<line stroke="Black" stroke-width="1.875" marker-end="url(#arrowEnd)" x1="259.5" y1="292.5" x2="304.5" y2="292.5" />
<text x="263.25" y="288.75" text-anchor="left">0..*</text>
<line stroke="Black" stroke-width="1.875" marker-end="url(#arrowEnd)" x1="259.5" y1="371.25" x2="304.5" y2="371.25" />
<text x="263.25" y="367.5" text-anchor="left">0..1</text>
<line stroke="Black" stroke-width="1.875" marker-end="url(#arrowEnd)" x1="259.5" y1="431.25" x2="304.5" y2="431.25" />
<text x="263.25" y="427.5" text-anchor="left">0..1</text>
<line stroke="Black" stroke-width="1.875" marker-end="url(#arrowEnd)" x1="259.5" y1="491.25" x2="304.5" y2="491.25" />
<text x="263.25" y="487.5" text-anchor="left">0..1</text>
<line stroke="Black" stroke-width="1.875" marker-end="url(#arrowEnd)" x1="259.5" y1="551.25" x2="304.5" y2="551.25" />
<text x="263.25" y="547.5" text-anchor="left">0..1</text>
<line stroke="Black" stroke-width="1.875" marker-end="url(#arrowEnd)" x1="259.5" y1="611.25" x2="304.5" y2="611.25" />
<text x="263.25" y="607.5" text-anchor="left">0..1</text>
<line stroke="Black" stroke-width="1.875" marker-end="url(#arrowEnd)" x1="259.5" y1="671.25" x2="304.5" y2="671.25" />
<text x="263.25" y="667.5" text-anchor="left">0..1</text>
<line stroke="Black" stroke-width="1.875" marker-end="url(#arrowEnd)" x1="259.5" y1="731.25" x2="304.5" y2="731.25" />
<text x="263.25" y="727.5" text-anchor="left">0..1</text>
<line stroke="Black" stroke-width="1.875" marker-end="url(#arrowEnd)" x1="259.5" y1="791.25" x2="304.5" y2="791.25" />
<text x="263.25" y="787.5" text-anchor="left">0..*</text>
<line stroke="Black" stroke-width="1.875" marker-end="url(#arrowEnd)" x1="259.5" y1="851.25" x2="304.5" y2="851.25" />
<text x="263.25" y="847.5" text-anchor="left">0..*</text>
<line stroke="Black" stroke-width="1.875" marker-end="url(#arrowEnd)" x1="259.5" y1="911.25" x2="304.5" y2="911.25" />
<text x="263.25" y="907.5" text-anchor="left">1..1</text>
<line stroke="Black" stroke-width="1.875" marker-start="url(#arrowStart)" x1="244.49998" y1="24.375" x2="259.5" y2="24.375" />
<line stroke="Black" stroke-width="1.875" x1="259.5" y1="24.375" x2="259.5" y2="911.25" />
</g>
<g>
<g transform="translate(304.5 7.5)">
<rect fill="LightCyan" stroke="Black" stroke-width="1.875" x="0" y="0" width="120" height="52.5" rx="3.75" ry="3.75" />
<a href="./StructureDefinition-ConsistentWith.html" target="_top">
<text x="60" y="22.5" text-anchor="middle">Consistent</text>
</a>
<a href="./StructureDefinition-ConsistentWith.html" target="_top">
<text x="60" y="41.25" text-anchor="middle">With</text>
</a>
</g>
</g>
<g>
<g transform="translate(304.5 67.5)">
<a href="StructureDefinition-AbnormalityDuct-definitions.html#Observation.component:ductType" target="_top">
<rect fill="LightYellow" stroke="Black" stroke-width="1.875" x="0" y="0" width="172.5" height="52.5" rx="3.75" ry="3.75" />
</a>
<a href="StructureDefinition-AbnormalityDuct-definitions.html#Observation.component:ductType" target="_top">
<text x="86.25" y="22.5" text-anchor="middle">Duct Type</text>
</a>
<a href="StructureDefinition-AbnormalityDuct-definitions.html#Observation.component:ductType" target="_top">
<text x="86.25" y="41.25" text-anchor="middle">CodeableConcept</text>
</a>
</g>
<line stroke="Black" stroke-width="1.875" marker-end="url(#arrowEnd)" x1="492" y1="93.75" x2="537" y2="93.75" />
<line stroke="Black" stroke-width="1.875" marker-start="url(#arrowStart)" x1="477" y1="93.75" x2="492" y2="93.75" />
<line stroke="Black" stroke-width="1.875" x1="492" y1="93.75" x2="492" y2="93.75" />
</g>
<g>
<g transform="translate(537 67.5)">
<rect fill="LightGreen" stroke="Black" stroke-width="1.875" x="0" y="0" width="99" height="52.5" rx="3.75" ry="3.75" />
<a href="./ValueSet-AbnormalityDuctTypeVS.html" target="_top">
<text x="49.5" y="22.5" text-anchor="middle">Duct</text>
</a>
<a href="./ValueSet-AbnormalityDuctTypeVS.html" target="_top">
<text x="49.5" y="41.25" text-anchor="middle">ValueSet</text>
</a>
</g>
</g>
<g>
<g transform="translate(304.5 127.5)">
<a href="StructureDefinition-AbnormalityDuct-definitions.html#Observation.component:observedChanges" target="_top">
<rect fill="LightYellow" stroke="Black" stroke-width="1.875" x="0" y="0" width="330" height="52.5" rx="3.75" ry="3.75" />
</a>
<a href="StructureDefinition-AbnormalityDuct-definitions.html#Observation.component:observedChanges" target="_top">
<text x="165" y="22.5" text-anchor="middle">Observed Change In Abnormality</text>
</a>
<a href="StructureDefinition-AbnormalityDuct-definitions.html#Observation.component:observedChanges" target="_top">
<text x="165" y="41.25" text-anchor="middle">CodeableConcept</text>
</a>
</g>
<line stroke="Black" stroke-width="1.875" marker-end="url(#arrowEnd)" x1="649.5" y1="163.125" x2="694.5" y2="163.125" />
<line stroke="Black" stroke-width="1.875" marker-start="url(#arrowStart)" x1="634.5" y1="153.75" x2="649.5" y2="153.75" />
<line stroke="Black" stroke-width="1.875" x1="649.5" y1="153.75" x2="649.5" y2="163.125" />
</g>
<g>
<g transform="translate(694.5 127.5)">
<rect fill="LightGreen" stroke="Black" stroke-width="1.875" x="0" y="0" width="99" height="71.25" rx="3.75" ry="3.75" />
<a href="./ValueSet-ObservedChangesVS.html" target="_top">
<text x="49.5" y="22.5" text-anchor="middle">Observed</text>
</a>
<a href="./ValueSet-ObservedChangesVS.html" target="_top">
<text x="49.5" y="41.25" text-anchor="middle">Change</text>
</a>
<a href="./ValueSet-ObservedChangesVS.html" target="_top">
<text x="49.5" y="60" text-anchor="middle">ValueSet</text>
</a>
</g>
</g>
<g>
<g transform="translate(304.5 206.25)">
<a href="StructureDefinition-AbnormalityDuct-definitions.html#Observation.component:observedSize" target="_top">
<rect fill="LightYellow" stroke="Black" stroke-width="1.875" x="0" y="0" width="193.5" height="52.5" rx="3.75" ry="3.75" />
</a>
<a href="StructureDefinition-AbnormalityDuct-definitions.html#Observation.component:observedSize" target="_top">
<text x="96.75" y="22.5" text-anchor="middle">Observed Size</text>
</a>
<a href="StructureDefinition-AbnormalityDuct-definitions.html#Observation.component:observedSize" target="_top">
<text x="96.75" y="41.25" text-anchor="middle">Quantity or Range</text>
</a>
</g>
</g>
<g>
<g transform="translate(304.5 266.25)">
<a href="StructureDefinition-AbnormalityDuct-definitions.html#Observation.component:observedGrouping" target="_top">
<rect fill="LightYellow" stroke="Black" stroke-width="1.875" x="0" y="0" width="372" height="52.5" rx="3.75" ry="3.75" />
</a>
<a href="StructureDefinition-AbnormalityDuct-definitions.html#Observation.component:observedGrouping" target="_top">
<text x="186" y="22.5" text-anchor="middle">Observed Grouping of Abnormalities</text>
</a>
<a href="StructureDefinition-AbnormalityDuct-definitions.html#Observation.component:observedGrouping" target="_top">
<text x="186" y="41.25" text-anchor="middle">CodeableConcept</text>
</a>
</g>
<line stroke="Black" stroke-width="1.875" marker-end="url(#arrowEnd)" x1="691.5" y1="301.875" x2="736.5" y2="301.875" />
<line stroke="Black" stroke-width="1.875" marker-start="url(#arrowStart)" x1="676.5" y1="292.5" x2="691.5" y2="292.5" />
<line stroke="Black" stroke-width="1.875" x1="691.5" y1="292.5" x2="691.5" y2="301.875" />
</g>
<g>
<g transform="translate(736.5 266.25)">
<rect fill="LightGreen" stroke="Black" stroke-width="1.875" x="0" y="0" width="99" height="71.25" rx="3.75" ry="3.75" />
<a href="./ValueSet-ObservedGroupingVS.html" target="_top">
<text x="49.5" y="22.5" text-anchor="middle">Observed</text>
</a>
<a href="./ValueSet-ObservedGroupingVS.html" target="_top">
<text x="49.5" y="41.25" text-anchor="middle">Grouping</text>
</a>
<a href="./ValueSet-ObservedGroupingVS.html" target="_top">
<text x="49.5" y="60" text-anchor="middle">ValueSet</text>
</a>
</g>
</g>
<g>
<g transform="translate(304.5 345)">
<a href="StructureDefinition-AbnormalityDuct-definitions.html#Observation.component:observedRegion" target="_top">
<rect fill="LightYellow" stroke="Black" stroke-width="1.875" x="0" y="0" width="193.5" height="52.5" rx="3.75" ry="3.75" />
</a>
<a href="StructureDefinition-AbnormalityDuct-definitions.html#Observation.component:observedRegion" target="_top">
<text x="96.75" y="22.5" text-anchor="middle">Observed Region</text>
</a>
<a href="StructureDefinition-AbnormalityDuct-definitions.html#Observation.component:observedRegion" target="_top">
<text x="96.75" y="41.25" text-anchor="middle">Quantity or Range</text>
</a>
</g>
</g>
<g>
<g transform="translate(304.5 405)">
<a href="StructureDefinition-AbnormalityDuct-definitions.html#Observation.component:biRadsAssessmentCategory" target="_top">
<rect fill="LightYellow" stroke="Black" stroke-width="1.875" x="0" y="0" width="287.99997" height="52.5" rx="3.75" ry="3.75" />
</a>
<a href="StructureDefinition-AbnormalityDuct-definitions.html#Observation.component:biRadsAssessmentCategory" target="_top">
<text x="143.99998" y="22.5" text-anchor="middle">BiRads Assessment Category</text>
</a>
<a href="StructureDefinition-AbnormalityDuct-definitions.html#Observation.component:biRadsAssessmentCategory" target="_top">
<text x="143.99998" y="41.25" text-anchor="middle">CodeableConcept</text>
</a>
</g>
<line stroke="Black" stroke-width="1.875" marker-end="url(#arrowEnd)" x1="607.5" y1="431.25" x2="652.5" y2="431.25" />
<line stroke="Black" stroke-width="1.875" marker-start="url(#arrowStart)" x1="592.5" y1="431.25" x2="607.5" y2="431.25" />
<line stroke="Black" stroke-width="1.875" x1="607.5" y1="431.25" x2="607.5" y2="431.25" />
</g>
<g>
<g transform="translate(652.5 405)">
<rect fill="LightGreen" stroke="Black" stroke-width="1.875" x="0" y="0" width="99" height="52.5" rx="3.75" ry="3.75" />
<a href="./ValueSet-BiRadsAssessmentCategoriesVS.html" target="_top">
<text x="49.5" y="22.5" text-anchor="middle">BiRads</text>
</a>
<a href="./ValueSet-BiRadsAssessmentCategoriesVS.html" target="_top">
<text x="49.5" y="41.25" text-anchor="middle">ValueSet</text>
</a>
</g>
</g>
<g>
<g transform="translate(304.5 465)">
<a href="StructureDefinition-AbnormalityDuct-definitions.html#Observation.component:orientation" target="_top">
<rect fill="LightYellow" stroke="Black" stroke-width="1.875" x="0" y="0" width="172.5" height="52.5" rx="3.75" ry="3.75" />
</a>
<a href="StructureDefinition-AbnormalityDuct-definitions.html#Observation.component:orientation" target="_top">
<text x="86.25" y="22.5" text-anchor="middle">Orientation</text>
</a>
<a href="StructureDefinition-AbnormalityDuct-definitions.html#Observation.component:orientation" target="_top">
<text x="86.25" y="41.25" text-anchor="middle">CodeableConcept</text>
</a>
</g>
<line stroke="Black" stroke-width="1.875" marker-end="url(#arrowEnd)" x1="492" y1="481.875" x2="537" y2="481.875" />
<line stroke="Black" stroke-width="1.875" marker-start="url(#arrowStart)" x1="477" y1="491.25" x2="492" y2="491.25" />
<line stroke="Black" stroke-width="1.875" x1="492" y1="481.875" x2="492" y2="491.25" />
</g>
<g>
<g transform="translate(537 465)">
<rect fill="LightGreen" stroke="Black" stroke-width="1.875" x="0" y="0" width="225" height="33.75" rx="3.75" ry="3.75" />
<a href="./ValueSet-OrientationVS.html" target="_top">
<text x="112.5" y="22.5" text-anchor="middle">Orientation ValueSet</text>
</a>
</g>
</g>
<g>
<g transform="translate(304.5 525)">
<a href="StructureDefinition-AbnormalityDuct-definitions.html#Observation.component:shape" target="_top">
<rect fill="LightYellow" stroke="Black" stroke-width="1.875" x="0" y="0" width="172.5" height="52.5" rx="3.75" ry="3.75" />
</a>
<a href="StructureDefinition-AbnormalityDuct-definitions.html#Observation.component:shape" target="_top">
<text x="86.25" y="22.5" text-anchor="middle">Shape</text>
</a>
<a href="StructureDefinition-AbnormalityDuct-definitions.html#Observation.component:shape" target="_top">
<text x="86.25" y="41.25" text-anchor="middle">CodeableConcept</text>
</a>
</g>
<line stroke="Black" stroke-width="1.875" marker-end="url(#arrowEnd)" x1="492" y1="551.25" x2="537" y2="551.25" />
<line stroke="Black" stroke-width="1.875" marker-start="url(#arrowStart)" x1="477" y1="551.25" x2="492" y2="551.25" />
<line stroke="Black" stroke-width="1.875" x1="492" y1="551.25" x2="492" y2="551.25" />
</g>
<g>
<g transform="translate(537 525)">
<rect fill="LightGreen" stroke="Black" stroke-width="1.875" x="0" y="0" width="99" height="52.5" rx="3.75" ry="3.75" />
<a href="./ValueSet-ShapeVS.html" target="_top">
<text x="49.5" y="22.5" text-anchor="middle">Shape</text>
</a>
<a href="./ValueSet-ShapeVS.html" target="_top">
<text x="49.5" y="41.25" text-anchor="middle">ValueSet</text>
</a>
</g>
</g>
<g>
<g transform="translate(304.5 585)">
<a href="StructureDefinition-AbnormalityDuct-definitions.html#Observation.component:margin" target="_top">
<rect fill="LightYellow" stroke="Black" stroke-width="1.875" x="0" y="0" width="172.5" height="52.5" rx="3.75" ry="3.75" />
</a>
<a href="StructureDefinition-AbnormalityDuct-definitions.html#Observation.component:margin" target="_top">
<text x="86.25" y="22.5" text-anchor="middle">Margin</text>
</a>
<a href="StructureDefinition-AbnormalityDuct-definitions.html#Observation.component:margin" target="_top">
<text x="86.25" y="41.25" text-anchor="middle">CodeableConcept</text>
</a>
</g>
<line stroke="Black" stroke-width="1.875" marker-end="url(#arrowEnd)" x1="492" y1="601.875" x2="537" y2="601.875" />
<line stroke="Black" stroke-width="1.875" marker-start="url(#arrowStart)" x1="477" y1="611.25" x2="492" y2="611.25" />
<line stroke="Black" stroke-width="1.875" x1="492" y1="601.875" x2="492" y2="611.25" />
</g>
<g>
<g transform="translate(537 585)">
<rect fill="LightGreen" stroke="Black" stroke-width="1.875" x="0" y="0" width="162" height="33.75" rx="3.75" ry="3.75" />
<a href="./ValueSet-MarginVS.html" target="_top">
<text x="81" y="22.5" text-anchor="middle">MarginValueSet</text>
</a>
</g>
</g>
<g>
<g transform="translate(304.5 645)">
<a href="StructureDefinition-AbnormalityDuct-definitions.html#Observation.component:mgDensity" target="_top">
<rect fill="LightYellow" stroke="Black" stroke-width="1.875" x="0" y="0" width="172.5" height="52.5" rx="3.75" ry="3.75" />
</a>
<a href="StructureDefinition-AbnormalityDuct-definitions.html#Observation.component:mgDensity" target="_top">
<text x="86.25" y="22.5" text-anchor="middle">Density</text>
</a>
<a href="StructureDefinition-AbnormalityDuct-definitions.html#Observation.component:mgDensity" target="_top">
<text x="86.25" y="41.25" text-anchor="middle">CodeableConcept</text>
</a>
</g>
<line stroke="Black" stroke-width="1.875" marker-end="url(#arrowEnd)" x1="492" y1="661.875" x2="537" y2="661.875" />
<line stroke="Black" stroke-width="1.875" marker-start="url(#arrowStart)" x1="477" y1="671.25" x2="492" y2="671.25" />
<line stroke="Black" stroke-width="1.875" x1="492" y1="661.875" x2="492" y2="671.25" />
</g>
<g>
<g transform="translate(537 645)">
<rect fill="LightGreen" stroke="Black" stroke-width="1.875" x="0" y="0" width="214.5" height="33.75" rx="3.75" ry="3.75" />
<a href="./ValueSet-MGDensityVS.html" target="_top">
<text x="107.25" y="22.5" text-anchor="middle">MG Density ValueSet</text>
</a>
</g>
</g>
<g>
<g transform="translate(304.5 705)">
<a href="StructureDefinition-AbnormalityDuct-definitions.html#Observation.component:observedCount" target="_top">
<rect fill="LightYellow" stroke="Black" stroke-width="1.875" x="0" y="0" width="193.5" height="52.5" rx="3.75" ry="3.75" />
</a>
<a href="StructureDefinition-AbnormalityDuct-definitions.html#Observation.component:observedCount" target="_top">
<text x="96.75" y="22.5" text-anchor="middle">Observed Count</text>
</a>
<a href="StructureDefinition-AbnormalityDuct-definitions.html#Observation.component:observedCount" target="_top">
<text x="96.75" y="41.25" text-anchor="middle">Quantity or Range</text>
</a>
</g>
</g>
<g>
<g transform="translate(304.5 765)">
<a href="StructureDefinition-AbnormalityDuct-definitions.html#Observation.component:notPreviouslySeen" target="_top">
<rect fill="LightYellow" stroke="Black" stroke-width="1.875" x="0" y="0" width="214.5" height="52.5" rx="3.75" ry="3.75" />
</a>
<a href="StructureDefinition-AbnormalityDuct-definitions.html#Observation.component:notPreviouslySeen" target="_top">
<text x="107.25" y="22.5" text-anchor="middle">Not Previously Seen</text>
</a>
<a href="StructureDefinition-AbnormalityDuct-definitions.html#Observation.component:notPreviouslySeen" target="_top">
<text x="107.25" y="41.25" text-anchor="middle">CodeableConcept</text>
</a>
</g>
<line stroke="Black" stroke-width="1.875" marker-end="url(#arrowEnd)" x1="534" y1="791.25" x2="579" y2="791.25" />
<line stroke="Black" stroke-width="1.875" marker-start="url(#arrowStart)" x1="519" y1="791.25" x2="534" y2="791.25" />
<line stroke="Black" stroke-width="1.875" x1="534" y1="791.25" x2="534" y2="791.25" />
</g>
<g>
<g transform="translate(579 765)">
<rect fill="LightGreen" stroke="Black" stroke-width="1.875" x="0" y="0" width="193.5" height="52.5" rx="3.75" ry="3.75" />
<a href="./ValueSet-NotPreviouslySeenVS.html" target="_top">
<text x="96.75" y="22.5" text-anchor="middle">NotPreviouslySeen</text>
</a>
<a href="./ValueSet-NotPreviouslySeenVS.html" target="_top">
<text x="96.75" y="41.25" text-anchor="middle">ValueSet</text>
</a>
</g>
</g>
<g>
<g transform="translate(304.5 825)">
<a href="StructureDefinition-AbnormalityDuct-definitions.html#Observation.component:correspondsWith" target="_top">
<rect fill="LightYellow" stroke="Black" stroke-width="1.875" x="0" y="0" width="183" height="52.5" rx="3.75" ry="3.75" />
</a>
<a href="StructureDefinition-AbnormalityDuct-definitions.html#Observation.component:correspondsWith" target="_top">
<text x="91.5" y="22.5" text-anchor="middle">Corresponds With</text>
</a>
<a href="StructureDefinition-AbnormalityDuct-definitions.html#Observation.component:correspondsWith" target="_top">
<text x="91.5" y="41.25" text-anchor="middle">CodeableConcept</text>
</a>
</g>
<line stroke="Black" stroke-width="1.875" marker-end="url(#arrowEnd)" x1="502.5" y1="851.25" x2="547.5" y2="851.25" />
<line stroke="Black" stroke-width="1.875" marker-start="url(#arrowStart)" x1="487.5" y1="851.25" x2="502.5" y2="851.25" />
<line stroke="Black" stroke-width="1.875" x1="502.5" y1="851.25" x2="502.5" y2="851.25" />
</g>
<g>
<g transform="translate(547.5 825)">
<rect fill="LightGreen" stroke="Black" stroke-width="1.875" x="0" y="0" width="172.5" height="52.5" rx="3.75" ry="3.75" />
<a href="./ValueSet-CorrespondsWithVS.html" target="_top">
<text x="86.25" y="22.5" text-anchor="middle">CorrespondsWith</text>
</a>
<a href="./ValueSet-CorrespondsWithVS.html" target="_top">
<text x="86.25" y="41.25" text-anchor="middle">ValueSet</text>
</a>
</g>
</g>
<g>
<g transform="translate(304.5 885)">
<a href="StructureDefinition-AbnormalityDuct-definitions.html#Observation.bodySite.extension:breastBodyLocation" target="_top">
<rect fill="LightSalmon" stroke="Black" stroke-width="1.875" x="0" y="0" width="225" height="52.5" rx="3.75" ry="3.75" />
</a>
<a href="StructureDefinition-AbnormalityDuct-definitions.html#Observation.bodySite.extension:breastBodyLocation" target="_top">
<text x="112.5" y="22.5" text-anchor="middle">Breast Body Location</text>
</a>
<a href="StructureDefinition-AbnormalityDuct-definitions.html#Observation.bodySite.extension:breastBodyLocation" target="_top">
<text x="112.5" y="41.25" text-anchor="middle">extension</text>
</a>
</g>
<line stroke="Black" stroke-width="1.875" marker-end="url(#arrowEnd)" x1="544.5" y1="901.875" x2="589.5" y2="901.875" />
<line stroke="Black" stroke-width="1.875" marker-start="url(#arrowStart)" x1="529.5" y1="911.25" x2="544.5" y2="911.25" />
<line stroke="Black" stroke-width="1.875" x1="544.5" y1="901.875" x2="544.5" y2="911.25" />
</g>
<g>
<g transform="translate(589.5 885)">
<rect fill="LightCyan" stroke="Black" stroke-width="1.875" x="0" y="0" width="183" height="33.75" rx="3.75" ry="3.75" />
<a href="./StructureDefinition-BreastBodyLocationExtension.html" target="_top">
<text x="91.5" y="22.5" text-anchor="middle">Breast Body Loc.</text>
</a>
</g>
</g>
</svg>
