<?xml version="1.0"?>
<!DOCTYPE svg PUBLIC "-//W3C//DTD SVG 1.1//EN" "http://www.w3.org/Graphics/SVG/1.1/DTD/svg11.dtd">
<svg xmlns="http://www.w3.org/2000/svg" version="1.1" width="1635.0001" height="690">
<defs>
<marker id="arrowStart" markerWidth="3.75" markerHeight="3.75" markerUnits="px" refX="1.875" refY="1.875">
<circle fill="Black" stroke-width="0" cx="1.875" cy="1.875" r="1.875" />
</marker>
<marker id="arrowEnd" markerWidth="7.5" markerHeight="7.5" markerUnits="px" refX="7.5" refY="3.75">
<polygon fill="Black" stroke-width="0" points="0 0 7.5 3.75 0 7.5" />
</marker>
</defs>
<g>
<g transform="translate(7.5 7.5)">
<rect fill="White" stroke="Black" stroke-width="1.875" x="0" y="0" width="130.5" height="71.25" rx="3.75" ry="3.75" />
<a href="./StructureDefinition-BreastRadComposition.html" target="_top">
<text x="65.25" y="22.5" text-anchor="middle">Breast</text>
</a>
<a href="./StructureDefinition-BreastRadComposition.html" target="_top">
<text x="65.25" y="41.25" text-anchor="middle">Radiology</text>
</a>
<a href="./StructureDefinition-BreastRadComposition.html" target="_top">
<text x="65.25" y="60" text-anchor="middle">Composition</text>
</a>
</g>
<line stroke="Black" stroke-width="1.875" marker-end="url(#arrowEnd)" x1="153" y1="33.75" x2="198" y2="33.75" />
<text x="156.75" y="30" text-anchor="left">1..1</text>
<line stroke="Black" stroke-width="1.875" marker-end="url(#arrowEnd)" x1="153" y1="581.25" x2="198" y2="581.25" />
<text x="156.75" y="577.5" text-anchor="left">0..*</text>
<line stroke="Black" stroke-width="1.875" marker-end="url(#arrowEnd)" x1="153" y1="641.25" x2="198" y2="641.25" />
<text x="156.75" y="637.5" text-anchor="left">0..*</text>
<line stroke="Black" stroke-width="1.875" marker-start="url(#arrowStart)" x1="138" y1="43.125" x2="153" y2="43.125" />
<line stroke="Black" stroke-width="1.875" x1="153" y1="33.75" x2="153" y2="641.25" />
</g>
<g>
<g transform="translate(198 7.5)">
<a href="StructureDefinition-BreastRadComposition-definitions.html#Composition.section:report" target="_top">
<rect fill="LightYellow" stroke="Black" stroke-width="1.875" x="0" y="0" width="88.5" height="52.5" rx="3.75" ry="3.75" />
</a>
<a href="StructureDefinition-BreastRadComposition-definitions.html#Composition.section:report" target="_top">
<text x="44.25" y="22.5" text-anchor="middle">Report</text>
</a>
<a href="StructureDefinition-BreastRadComposition-definitions.html#Composition.section:report" target="_top">
<text x="44.25" y="41.25" text-anchor="middle">Section</text>
</a>
</g>
<line stroke="Black" stroke-width="1.875" marker-end="url(#arrowEnd)" x1="301.5" y1="43.125" x2="346.5" y2="43.125" />
<text x="305.25" y="39.375" text-anchor="left">1..1</text>
<line stroke="Black" stroke-width="1.875" marker-start="url(#arrowStart)" x1="286.5" y1="33.75" x2="301.5" y2="33.75" />
<line stroke="Black" stroke-width="1.875" x1="301.5" y1="33.75" x2="301.5" y2="43.125" />
</g>
<g>
<g transform="translate(346.5 7.5)">
<rect fill="LightYellow" stroke="Black" stroke-width="1.875" x="0" y="0" width="109.49999" height="71.25" rx="3.75" ry="3.75" />
<a href="./StructureDefinition-BreastRadReport.html" target="_top">
<text x="54.749996" y="22.5" text-anchor="middle">Breast</text>
</a>
<a href="./StructureDefinition-BreastRadReport.html" target="_top">
<text x="54.749996" y="41.25" text-anchor="middle">Radiology</text>
</a>
<a href="./StructureDefinition-BreastRadReport.html" target="_top">
<text x="54.749996" y="60" text-anchor="middle">Report</text>
</a>
</g>
<line stroke="Black" stroke-width="1.875" marker-end="url(#arrowEnd)" x1="471" y1="33.75" x2="516" y2="33.75" />
<text x="474.75" y="30" text-anchor="left">0..*</text>
<line stroke="Black" stroke-width="1.875" marker-end="url(#arrowEnd)" x1="471" y1="176.25" x2="516" y2="176.25" />
<text x="474.75" y="172.5" text-anchor="left">0..1</text>
<line stroke="Black" stroke-width="1.875" marker-end="url(#arrowEnd)" x1="471" y1="461.25" x2="516" y2="461.25" />
<line stroke="Black" stroke-width="1.875" marker-end="url(#arrowEnd)" x1="471" y1="521.25" x2="516" y2="521.25" />
<text x="474.75" y="517.5" text-anchor="left">1..1</text>
<line stroke="Black" stroke-width="1.875" marker-start="url(#arrowStart)" x1="456" y1="43.125" x2="471" y2="43.125" />
<line stroke="Black" stroke-width="1.875" x1="471" y1="33.75" x2="471" y2="521.25" />
</g>
<g>
<g transform="translate(516 7.5)">
<rect fill="LightBlue" stroke="Black" stroke-width="1.875" x="0" y="0" width="246" height="52.5" rx="3.75" ry="3.75" />
<a href="./StructureDefinition-ServiceRecommendationExtension.html" target="_top">
<text x="123" y="22.5" text-anchor="middle">Service Recommendation</text>
</a>
<a href="./StructureDefinition-ServiceRecommendationExtension.html" target="_top">
<text x="123" y="41.25" text-anchor="middle">Extension</text>
</a>
</g>
<line stroke="Black" stroke-width="1.875" marker-end="url(#arrowEnd)" x1="777.00006" y1="24.375" x2="822.00006" y2="24.375" />
<line stroke="Black" stroke-width="1.875" marker-end="url(#arrowEnd)" x1="777.00006" y1="65.625" x2="822.00006" y2="65.625" />
<line stroke="Black" stroke-width="1.875" marker-end="url(#arrowEnd)" x1="777.00006" y1="116.25" x2="822.00006" y2="116.25" />
<text x="780.75006" y="112.5" text-anchor="left">1..1</text>
<line stroke="Black" stroke-width="1.875" marker-start="url(#arrowStart)" x1="762.00006" y1="33.75" x2="777.00006" y2="33.75" />
<line stroke="Black" stroke-width="1.875" x1="777.00006" y1="24.375" x2="777.00006" y2="116.25" />
</g>
<g>
<g transform="translate(822.00006 7.5)">
<rect fill="LightCyan" stroke="Black" stroke-width="1.875" x="0" y="0" width="193.5" height="33.75" rx="3.75" ry="3.75" />
<a href="http://hl7.org/fhir/StructureDefinition/MedicationRequest" target="_top">
<text x="96.75" y="22.5" text-anchor="middle">MedicationRequest</text>
</a>
</g>
</g>
<g>
<g transform="translate(822.00006 48.75)">
<rect fill="LightCyan" stroke="Black" stroke-width="1.875" x="0" y="0" width="162" height="33.75" rx="3.75" ry="3.75" />
<a href="http://hl7.org/fhir/StructureDefinition/ServiceRequest" target="_top">
<text x="81" y="22.5" text-anchor="middle">ServiceRequest</text>
</a>
</g>
</g>
<g>
<g transform="translate(822.00006 90)">
<rect fill="LightCyan" stroke="Black" stroke-width="1.875" x="0" y="0" width="162" height="52.5" rx="3.75" ry="3.75" />
<a href="./StructureDefinition-ServiceRecommendation.html" target="_top">
<text x="81" y="22.5" text-anchor="middle">Service</text>
</a>
<a href="./StructureDefinition-ServiceRecommendation.html" target="_top">
<text x="81" y="41.25" text-anchor="middle">Recommendation</text>
</a>
</g>
<line stroke="Black" stroke-width="1.875" marker-end="url(#arrowEnd)" x1="999.0001" y1="116.25" x2="1044.0001" y2="116.25" />
<text x="1002.7501" y="112.5" text-anchor="left">0..1</text>
<line stroke="Black" stroke-width="1.875" marker-start="url(#arrowStart)" x1="984.0001" y1="116.25" x2="999.0001" y2="116.25" />
<line stroke="Black" stroke-width="1.875" x1="999.0001" y1="116.25" x2="999.0001" y2="116.25" />
</g>
<g>
<g transform="translate(1044.0001 90)">
<a href="StructureDefinition-ServiceRecommendation-definitions.html#ServiceRequest.code" target="_top">
<rect fill="LightYellow" stroke="Black" stroke-width="1.875" x="0" y="0" width="298.5" height="52.5" rx="3.75" ry="3.75" />
</a>
<a href="StructureDefinition-ServiceRecommendation-definitions.html#ServiceRequest.code" target="_top">
<text x="149.25" y="22.5" text-anchor="middle">Service Recommendation Code</text>
</a>
<a href="StructureDefinition-ServiceRecommendation-definitions.html#ServiceRequest.code" target="_top">
<text x="149.25" y="41.25" text-anchor="middle">CodeableConcept</text>
</a>
</g>
<line stroke="Black" stroke-width="1.875" marker-end="url(#arrowEnd)" x1="1357.5001" y1="116.25" x2="1402.5001" y2="116.25" />
<line stroke="Black" stroke-width="1.875" marker-start="url(#arrowStart)" x1="1342.5001" y1="116.25" x2="1357.5001" y2="116.25" />
<line stroke="Black" stroke-width="1.875" x1="1357.5001" y1="116.25" x2="1357.5001" y2="116.25" />
</g>
<g>
<g transform="translate(1402.5001 90)">
<rect fill="LightYellow" stroke="Black" stroke-width="1.875" x="0" y="0" width="172.5" height="52.5" rx="3.75" ry="3.75" />
<a href="./ValueSet-RecommendationsVS.html" target="_top">
<text x="86.25" y="22.5" text-anchor="middle">Recommendations</text>
</a>
<a href="./ValueSet-RecommendationsVS.html" target="_top">
<text x="86.25" y="41.25" text-anchor="middle">ValueSet</text>
</a>
</g>
</g>
<g>
<g transform="translate(516 150)">
<rect fill="LightCyan" stroke="Black" stroke-width="1.875" x="0" y="0" width="130.5" height="52.5" rx="3.75" ry="3.75" />
<a href="./StructureDefinition-SectionFindingsLeftBreast.html" target="_top">
<text x="65.25" y="22.5" text-anchor="middle">Findings</text>
</a>
<a href="./StructureDefinition-SectionFindingsLeftBreast.html" target="_top">
<text x="65.25" y="41.25" text-anchor="middle">Left Breast</text>
</a>
</g>
<line stroke="Black" stroke-width="1.875" marker-end="url(#arrowEnd)" x1="661.50006" y1="176.25" x2="706.50006" y2="176.25" />
<line stroke="Black" stroke-width="1.875" marker-end="url(#arrowEnd)" x1="661.50006" y1="226.875" x2="706.50006" y2="226.875" />
<line stroke="Black" stroke-width="1.875" marker-end="url(#arrowEnd)" x1="661.50006" y1="268.125" x2="706.50006" y2="268.125" />
<line stroke="Black" stroke-width="1.875" marker-end="url(#arrowEnd)" x1="661.50006" y1="309.375" x2="706.50006" y2="309.375" />
<line stroke="Black" stroke-width="1.875" marker-end="url(#arrowEnd)" x1="661.50006" y1="350.625" x2="706.50006" y2="350.625" />
<line stroke="Black" stroke-width="1.875" marker-end="url(#arrowEnd)" x1="661.50006" y1="401.25" x2="706.50006" y2="401.25" />
<text x="665.25006" y="397.5" text-anchor="left">0..1</text>
<line stroke="Black" stroke-width="1.875" marker-start="url(#arrowStart)" x1="646.50006" y1="176.25" x2="661.50006" y2="176.25" />
<line stroke="Black" stroke-width="1.875" x1="661.50006" y1="176.25" x2="661.50006" y2="401.25" />
</g>
<g>
<g transform="translate(706.50006 150)">
<rect fill="LightBlue" stroke="Black" stroke-width="1.875" x="0" y="0" width="246" height="52.5" rx="3.75" ry="3.75" />
<a href="./StructureDefinition-ServiceRecommendationExtension.html" target="_top">
<text x="123" y="22.5" text-anchor="middle">Service Recommendation</text>
</a>
<a href="./StructureDefinition-ServiceRecommendationExtension.html" target="_top">
<text x="123" y="41.25" text-anchor="middle">Extension</text>
</a>
</g>
</g>
<g>
<g transform="translate(706.50006 210)">
<rect fill="LightCyan" stroke="Black" stroke-width="1.875" x="0" y="0" width="120" height="33.75" rx="3.75" ry="3.75" />
<a href="./StructureDefinition-MGFinding.html" target="_top">
<text x="60" y="22.5" text-anchor="middle">MG Finding</text>
</a>
</g>
</g>
<g>
<g transform="translate(706.50006 251.25)">
<rect fill="LightCyan" stroke="Black" stroke-width="1.875" x="0" y="0" width="130.5" height="33.75" rx="3.75" ry="3.75" />
<a href="./StructureDefinition-MRIFinding.html" target="_top">
<text x="65.25" y="22.5" text-anchor="middle">MRI Finding</text>
</a>
</g>
</g>
<g>
<g transform="translate(706.50006 292.5)">
<rect fill="LightCyan" stroke="Black" stroke-width="1.875" x="0" y="0" width="120" height="33.75" rx="3.75" ry="3.75" />
<a href="./StructureDefinition-NMFinding.html" target="_top">
<text x="60" y="22.5" text-anchor="middle">NM Finding</text>
</a>
</g>
</g>
<g>
<g transform="translate(706.50006 333.75)">
<rect fill="LightCyan" stroke="Black" stroke-width="1.875" x="0" y="0" width="120" height="33.75" rx="3.75" ry="3.75" />
<a href="./StructureDefinition-USFinding.html" target="_top">
<text x="60" y="22.5" text-anchor="middle">US Finding</text>
</a>
</g>
</g>
<g>
<g transform="translate(706.50006 375)">
<a href="StructureDefinition-SectionFindingsLeftBreast-definitions.html#Observation.value[x]" target="_top">
<rect fill="LightYellow" stroke="Black" stroke-width="1.875" x="0" y="0" width="172.5" height="52.5" rx="3.75" ry="3.75" />
</a>
<a href="StructureDefinition-SectionFindingsLeftBreast-definitions.html#Observation.value[x]" target="_top">
<text x="86.25" y="22.5" text-anchor="middle">Finding Value</text>
</a>
<a href="StructureDefinition-SectionFindingsLeftBreast-definitions.html#Observation.value[x]" target="_top">
<text x="86.25" y="41.25" text-anchor="middle">CodeableConcept</text>
</a>
</g>
<line stroke="Black" stroke-width="1.875" marker-end="url(#arrowEnd)" x1="894.00006" y1="401.25" x2="939.00006" y2="401.25" />
<line stroke="Black" stroke-width="1.875" marker-start="url(#arrowStart)" x1="879.00006" y1="401.25" x2="894.00006" y2="401.25" />
<line stroke="Black" stroke-width="1.875" x1="894.00006" y1="401.25" x2="894.00006" y2="401.25" />
</g>
<g>
<g transform="translate(939.00006 375)">
<rect fill="LightYellow" stroke="Black" stroke-width="1.875" x="0" y="0" width="99" height="52.5" rx="3.75" ry="3.75" />
<a href="./ValueSet-BiRadsAssessmentCategoriesVS.html" target="_top">
<text x="49.5" y="22.5" text-anchor="middle">BiRads</text>
</a>
<a href="./ValueSet-BiRadsAssessmentCategoriesVS.html" target="_top">
<text x="49.5" y="41.25" text-anchor="middle">ValueSet</text>
</a>
</g>
</g>
<g>
<g transform="translate(516 435)">
<rect fill="LightCyan" stroke="Black" stroke-width="1.875" x="0" y="0" width="141" height="52.5" rx="3.75" ry="3.75" />
<a href="./StructureDefinition-SectionFindingsRightBreast.html" target="_top">
<text x="70.5" y="22.5" text-anchor="middle">Findings</text>
</a>
<a href="./StructureDefinition-SectionFindingsRightBreast.html" target="_top">
<text x="70.5" y="41.25" text-anchor="middle">Right Breast</text>
</a>
</g>
</g>
<g>
<g transform="translate(516 495)">
<a href="StructureDefinition-BreastRadReport-definitions.html#DiagnosticReport.conclusionCode" target="_top">
<rect fill="LightYellow" stroke="Black" stroke-width="1.875" x="0" y="0" width="172.5" height="52.5" rx="3.75" ry="3.75" />
</a>
<a href="StructureDefinition-BreastRadReport-definitions.html#DiagnosticReport.conclusionCode" target="_top">
<text x="86.25" y="22.5" text-anchor="middle">Conclusion Code</text>
</a>
<a href="StructureDefinition-BreastRadReport-definitions.html#DiagnosticReport.conclusionCode" target="_top">
<text x="86.25" y="41.25" text-anchor="middle">CodeableConcept</text>
</a>
</g>
<line stroke="Black" stroke-width="1.875" marker-end="url(#arrowEnd)" x1="703.5" y1="521.25" x2="748.5" y2="521.25" />
<line stroke="Black" stroke-width="1.875" marker-start="url(#arrowStart)" x1="688.5" y1="521.25" x2="703.5" y2="521.25" />
<line stroke="Black" stroke-width="1.875" x1="703.5" y1="521.25" x2="703.5" y2="521.25" />
</g>
<g>
<g transform="translate(748.5 495)">
<rect fill="LightYellow" stroke="Black" stroke-width="1.875" x="0" y="0" width="99" height="52.5" rx="3.75" ry="3.75" />
<a href="./ValueSet-BiRadsAssessmentCategoriesVS.html" target="_top">
<text x="49.5" y="22.5" text-anchor="middle">BiRads</text>
</a>
<a href="./ValueSet-BiRadsAssessmentCategoriesVS.html" target="_top">
<text x="49.5" y="41.25" text-anchor="middle">ValueSet</text>
</a>
</g>
</g>
<g>
<g transform="translate(198 555)">
<a href="StructureDefinition-BreastRadComposition-definitions.html#Composition.section:impressions" target="_top">
<rect fill="LightYellow" stroke="Black" stroke-width="1.875" x="0" y="0" width="130.5" height="52.5" rx="3.75" ry="3.75" />
</a>
<a href="StructureDefinition-BreastRadComposition-definitions.html#Composition.section:impressions" target="_top">
<text x="65.25" y="22.5" text-anchor="middle">Impressions</text>
</a>
<a href="StructureDefinition-BreastRadComposition-definitions.html#Composition.section:impressions" target="_top">
<text x="65.25" y="41.25" text-anchor="middle">Section</text>
</a>
</g>
<line stroke="Black" stroke-width="1.875" marker-end="url(#arrowEnd)" x1="343.5" y1="571.875" x2="388.5" y2="571.875" />
<line stroke="Black" stroke-width="1.875" marker-start="url(#arrowStart)" x1="328.5" y1="581.25" x2="343.5" y2="581.25" />
<line stroke="Black" stroke-width="1.875" x1="343.5" y1="571.875" x2="343.5" y2="581.25" />
</g>
<g>
<g transform="translate(388.5 555)">
<rect fill="LightYellow" stroke="Black" stroke-width="1.875" x="0" y="0" width="203.99998" height="33.75" rx="3.75" ry="3.75" />
<a href="http://hl7.org/fhir/StructureDefinition/ClinicalImpression" target="_top">
<text x="101.99999" y="22.5" text-anchor="middle">ClinicalImpression</text>
</a>
</g>
</g>
<g>
<g transform="translate(198 615)">
<a href="StructureDefinition-BreastRadComposition-definitions.html#Composition.section:relatedResources" target="_top">
<rect fill="LightYellow" stroke="Black" stroke-width="1.875" x="0" y="0" width="193.5" height="52.5" rx="3.75" ry="3.75" />
</a>
<a href="StructureDefinition-BreastRadComposition-definitions.html#Composition.section:relatedResources" target="_top">
<text x="96.75" y="22.5" text-anchor="middle">Related Resources</text>
</a>
<a href="StructureDefinition-BreastRadComposition-definitions.html#Composition.section:relatedResources" target="_top">
<text x="96.75" y="41.25" text-anchor="middle">Section</text>
</a>
</g>
<line stroke="Black" stroke-width="1.875" marker-end="url(#arrowEnd)" x1="406.49997" y1="631.875" x2="451.49997" y2="631.875" />
<line stroke="Black" stroke-width="1.875" marker-start="url(#arrowStart)" x1="391.49997" y1="641.25" x2="406.49997" y2="641.25" />
<line stroke="Black" stroke-width="1.875" x1="406.49997" y1="631.875" x2="406.49997" y2="641.25" />
</g>
<g>
<g transform="translate(451.49997 615)">
<rect fill="LightYellow" stroke="Black" stroke-width="1.875" x="0" y="0" width="99" height="33.75" rx="3.75" ry="3.75" />
<a href="http://hl7.org/fhir/StructureDefinition/Resource" target="_top">
<text x="49.5" y="22.5" text-anchor="middle">Resource</text>
</a>
</g>
</g>
</svg>
