<?xml version="1.0"?>
<!DOCTYPE svg PUBLIC "-//W3C//DTD SVG 1.1//EN" "http://www.w3.org/Graphics/SVG/1.1/DTD/svg11.dtd">
<svg xmlns="http://www.w3.org/2000/svg" version="1.1" width="1116" height="840">
<defs>
<marker id="arrowStart" markerWidth="3.75" markerHeight="3.75" markerUnits="px" refX="1.875" refY="1.875">
<circle fill="Black" stroke-width="0" cx="1.875" cy="1.875" r="1.875" />
</marker>
<marker id="arrowEnd" markerWidth="7.5" markerHeight="7.5" markerUnits="px" refX="7.5" refY="3.75">
<polygon fill="Black" stroke-width="0" points="0 0 7.5 3.75 0 7.5" />
</marker>
</defs>
<g>
<g transform="translate(7.5 7.5)">
<rect fill="LightCyan" stroke="Black" stroke-width="1.875" x="0" y="0" width="120" height="52.5" rx="3.75" ry="3.75" />
<a href="./StructureDefinition-AssociatedFeatures.html" target="_top">
<text x="60" y="22.5" text-anchor="middle">Associated</text>
</a>
<a href="./StructureDefinition-AssociatedFeatures.html" target="_top">
<text x="60" y="41.25" text-anchor="middle">Features</text>
</a>
</g>
<g transform="translate(7.5 67.5)">
<rect fill="LightCyan" stroke="Black" stroke-width="1.875" x="0" y="0" width="120" height="33.75" rx="3.75" ry="3.75" />
<a href="./StructureDefinition-MGFinding.html" target="_top">
<text x="60" y="22.5" text-anchor="middle">MG Finding</text>
</a>
</g>
<line stroke="Black" stroke-width="1.875" marker-end="url(#arrowEnd)" x1="142.5" y1="24.375" x2="187.5" y2="24.375" />
<text x="146.25" y="20.625" text-anchor="left"></text>
<line stroke="Black" stroke-width="1.875" marker-start="url(#arrowStart)" x1="127.5" y1="33.75" x2="142.5" y2="33.75" />
<line stroke="Black" stroke-width="1.875" marker-start="url(#arrowStart)" x1="127.5" y1="84.375" x2="142.5" y2="84.375" />
<line stroke="Black" stroke-width="1.875" x1="142.5" y1="24.375" x2="142.5" y2="84.375" />
</g>
<g>
<g transform="translate(187.5 7.5)">
<rect fill="White" stroke="Black" stroke-width="1.875" x="0" y="0" width="99" height="33.75" rx="3.75" ry="3.75" />
<text x="49.5" y="22.5" text-anchor="middle">MG Calc.</text>
</g>
<line stroke="Black" stroke-width="1.875" marker-end="url(#arrowEnd)" x1="301.5" y1="33.75" x2="346.5" y2="33.75" />
<text x="305.25" y="30" text-anchor="left">0..1</text>
<line stroke="Black" stroke-width="1.875" marker-end="url(#arrowEnd)" x1="301.5" y1="93.75" x2="346.5" y2="93.75" />
<text x="305.25" y="90" text-anchor="left">0..*</text>
<line stroke="Black" stroke-width="1.875" marker-end="url(#arrowEnd)" x1="301.5" y1="153.75" x2="346.5" y2="153.75" />
<text x="305.25" y="150" text-anchor="left">0..1</text>
<line stroke="Black" stroke-width="1.875" marker-end="url(#arrowEnd)" x1="301.5" y1="213.75" x2="346.5" y2="213.75" />
<text x="305.25" y="210" text-anchor="left">0..1</text>
<line stroke="Black" stroke-width="1.875" marker-end="url(#arrowEnd)" x1="301.5" y1="273.75" x2="346.5" y2="273.75" />
<text x="305.25" y="270" text-anchor="left">0..*</text>
<line stroke="Black" stroke-width="1.875" marker-end="url(#arrowEnd)" x1="301.5" y1="352.5" x2="346.5" y2="352.5" />
<text x="305.25" y="348.75" text-anchor="left">0..1</text>
<line stroke="Black" stroke-width="1.875" marker-end="url(#arrowEnd)" x1="301.5" y1="412.5" x2="346.5" y2="412.5" />
<text x="305.25" y="408.75" text-anchor="left">0..*</text>
<line stroke="Black" stroke-width="1.875" marker-end="url(#arrowEnd)" x1="301.5" y1="491.25" x2="346.5" y2="491.25" />
<text x="305.25" y="487.5" text-anchor="left">0..1</text>
<line stroke="Black" stroke-width="1.875" marker-end="url(#arrowEnd)" x1="301.5" y1="551.25" x2="346.5" y2="551.25" />
<text x="305.25" y="547.5" text-anchor="left">0..1</text>
<line stroke="Black" stroke-width="1.875" marker-end="url(#arrowEnd)" x1="301.5" y1="611.25" x2="346.5" y2="611.25" />
<text x="305.25" y="607.5" text-anchor="left">0..*</text>
<line stroke="Black" stroke-width="1.875" marker-end="url(#arrowEnd)" x1="301.5" y1="671.25" x2="346.5" y2="671.25" />
<text x="305.25" y="667.5" text-anchor="left">0..1</text>
<line stroke="Black" stroke-width="1.875" marker-end="url(#arrowEnd)" x1="301.5" y1="731.25" x2="346.5" y2="731.25" />
<text x="305.25" y="727.5" text-anchor="left">0..*</text>
<line stroke="Black" stroke-width="1.875" marker-end="url(#arrowEnd)" x1="301.5" y1="791.25" x2="346.5" y2="791.25" />
<text x="305.25" y="787.5" text-anchor="left">1..1</text>
<line stroke="Black" stroke-width="1.875" marker-start="url(#arrowStart)" x1="286.5" y1="24.375" x2="301.5" y2="24.375" />
<line stroke="Black" stroke-width="1.875" x1="301.5" y1="24.375" x2="301.5" y2="791.25" />
</g>
<g>
<g transform="translate(346.5 7.5)">
<rect fill="LightCyan" stroke="Black" stroke-width="1.875" x="0" y="0" width="120" height="52.5" rx="3.75" ry="3.75" />
<a href="./StructureDefinition-AssociatedFeatures.html" target="_top">
<text x="60" y="22.5" text-anchor="middle">Associated</text>
</a>
<a href="./StructureDefinition-AssociatedFeatures.html" target="_top">
<text x="60" y="41.25" text-anchor="middle">Features</text>
</a>
</g>
</g>
<g>
<g transform="translate(346.5 67.5)">
<rect fill="LightCyan" stroke="Black" stroke-width="1.875" x="0" y="0" width="120" height="52.5" rx="3.75" ry="3.75" />
<a href="./StructureDefinition-ConsistentWith.html" target="_top">
<text x="60" y="22.5" text-anchor="middle">Consistent</text>
</a>
<a href="./StructureDefinition-ConsistentWith.html" target="_top">
<text x="60" y="41.25" text-anchor="middle">With</text>
</a>
</g>
</g>
<g>
<g transform="translate(346.5 127.5)">
<a href="StructureDefinition-MGAbnormalityCalcification-definitions.html#Observation.component:calcificationType" target="_top">
<rect fill="LightYellow" stroke="Black" stroke-width="1.875" x="0" y="0" width="203.99998" height="52.5" rx="3.75" ry="3.75" />
</a>
<a href="StructureDefinition-MGAbnormalityCalcification-definitions.html#Observation.component:calcificationType" target="_top">
<text x="101.99999" y="22.5" text-anchor="middle">Calcification Type</text>
</a>
<a href="StructureDefinition-MGAbnormalityCalcification-definitions.html#Observation.component:calcificationType" target="_top">
<text x="101.99999" y="41.25" text-anchor="middle">CodeableConcept</text>
</a>
</g>
<line stroke="Black" stroke-width="1.875" marker-end="url(#arrowEnd)" x1="565.5" y1="144.375" x2="610.5" y2="144.375" />
<line stroke="Black" stroke-width="1.875" marker-start="url(#arrowStart)" x1="550.5" y1="153.75" x2="565.5" y2="153.75" />
<line stroke="Black" stroke-width="1.875" x1="565.5" y1="144.375" x2="565.5" y2="153.75" />
</g>
<g>
<g transform="translate(610.5 127.5)">
<rect fill="LightGreen" stroke="Black" stroke-width="1.875" x="0" y="0" width="235.5" height="33.75" rx="3.75" ry="3.75" />
<a href="./ValueSet-MammoCalcificationTypeVS.html" target="_top">
<text x="117.75" y="22.5" text-anchor="middle">MG Calc. TypeValueSet</text>
</a>
</g>
</g>
<g>
<g transform="translate(346.5 187.5)">
<a href="StructureDefinition-MGAbnormalityCalcification-definitions.html#Observation.component:calcificationDistribution" target="_top">
<rect fill="LightYellow" stroke="Black" stroke-width="1.875" x="0" y="0" width="287.99997" height="52.5" rx="3.75" ry="3.75" />
</a>
<a href="StructureDefinition-MGAbnormalityCalcification-definitions.html#Observation.component:calcificationDistribution" target="_top">
<text x="143.99998" y="22.5" text-anchor="middle">Calcification Distribution</text>
</a>
<a href="StructureDefinition-MGAbnormalityCalcification-definitions.html#Observation.component:calcificationDistribution" target="_top">
<text x="143.99998" y="41.25" text-anchor="middle">CodeableConcept</text>
</a>
</g>
<line stroke="Black" stroke-width="1.875" marker-end="url(#arrowEnd)" x1="649.5" y1="213.75" x2="694.5" y2="213.75" />
<line stroke="Black" stroke-width="1.875" marker-start="url(#arrowStart)" x1="634.5" y1="213.75" x2="649.5" y2="213.75" />
<line stroke="Black" stroke-width="1.875" x1="649.5" y1="213.75" x2="649.5" y2="213.75" />
</g>
<g>
<g transform="translate(694.5 187.5)">
<rect fill="LightGreen" stroke="Black" stroke-width="1.875" x="0" y="0" width="225" height="52.5" rx="3.75" ry="3.75" />
<a href="./ValueSet-MammoCalcificationDistributionVS.html" target="_top">
<text x="112.5" y="22.5" text-anchor="middle">MG Calc.</text>
</a>
<a href="./ValueSet-MammoCalcificationDistributionVS.html" target="_top">
<text x="112.5" y="41.25" text-anchor="middle">DistributionValueSet</text>
</a>
</g>
</g>
<g>
<g transform="translate(346.5 247.5)">
<a href="StructureDefinition-MGAbnormalityCalcification-definitions.html#Observation.component:observedChanges" target="_top">
<rect fill="LightYellow" stroke="Black" stroke-width="1.875" x="0" y="0" width="330" height="52.5" rx="3.75" ry="3.75" />
</a>
<a href="StructureDefinition-MGAbnormalityCalcification-definitions.html#Observation.component:observedChanges" target="_top">
<text x="165" y="22.5" text-anchor="middle">Observed Change In Abnormality</text>
</a>
<a href="StructureDefinition-MGAbnormalityCalcification-definitions.html#Observation.component:observedChanges" target="_top">
<text x="165" y="41.25" text-anchor="middle">CodeableConcept</text>
</a>
</g>
<line stroke="Black" stroke-width="1.875" marker-end="url(#arrowEnd)" x1="691.5" y1="283.125" x2="736.5" y2="283.125" />
<line stroke="Black" stroke-width="1.875" marker-start="url(#arrowStart)" x1="676.5" y1="273.75" x2="691.5" y2="273.75" />
<line stroke="Black" stroke-width="1.875" x1="691.5" y1="273.75" x2="691.5" y2="283.125" />
</g>
<g>
<g transform="translate(736.5 247.5)">
<rect fill="LightGreen" stroke="Black" stroke-width="1.875" x="0" y="0" width="99" height="71.25" rx="3.75" ry="3.75" />
<a href="./ValueSet-ObservedChangesVS.html" target="_top">
<text x="49.5" y="22.5" text-anchor="middle">Observed</text>
</a>
<a href="./ValueSet-ObservedChangesVS.html" target="_top">
<text x="49.5" y="41.25" text-anchor="middle">Change</text>
</a>
<a href="./ValueSet-ObservedChangesVS.html" target="_top">
<text x="49.5" y="60" text-anchor="middle">ValueSet</text>
</a>
</g>
</g>
<g>
<g transform="translate(346.5 326.25)">
<a href="StructureDefinition-MGAbnormalityCalcification-definitions.html#Observation.component:observedSize" target="_top">
<rect fill="LightYellow" stroke="Black" stroke-width="1.875" x="0" y="0" width="193.5" height="52.5" rx="3.75" ry="3.75" />
</a>
<a href="StructureDefinition-MGAbnormalityCalcification-definitions.html#Observation.component:observedSize" target="_top">
<text x="96.75" y="22.5" text-anchor="middle">Observed Size</text>
</a>
<a href="StructureDefinition-MGAbnormalityCalcification-definitions.html#Observation.component:observedSize" target="_top">
<text x="96.75" y="41.25" text-anchor="middle">Quantity or Range</text>
</a>
</g>
</g>
<g>
<g transform="translate(346.5 386.25)">
<a href="StructureDefinition-MGAbnormalityCalcification-definitions.html#Observation.component:observedGrouping" target="_top">
<rect fill="LightYellow" stroke="Black" stroke-width="1.875" x="0" y="0" width="550.5" height="52.5" rx="3.75" ry="3.75" />
</a>
<a href="StructureDefinition-MGAbnormalityCalcification-definitions.html#Observation.component:observedGrouping" target="_top">
<text x="275.25" y="22.5" text-anchor="middle">Observed Grouping of Abnormalities regions or items</text>
</a>
<a href="StructureDefinition-MGAbnormalityCalcification-definitions.html#Observation.component:observedGrouping" target="_top">
<text x="275.25" y="41.25" text-anchor="middle">CodeableConcept</text>
</a>
</g>
<line stroke="Black" stroke-width="1.875" marker-end="url(#arrowEnd)" x1="912.00006" y1="421.875" x2="957.00006" y2="421.875" />
<line stroke="Black" stroke-width="1.875" marker-start="url(#arrowStart)" x1="897.00006" y1="412.5" x2="912.00006" y2="412.5" />
<line stroke="Black" stroke-width="1.875" x1="912.00006" y1="412.5" x2="912.00006" y2="421.875" />
</g>
<g>
<g transform="translate(957.00006 386.25)">
<rect fill="LightGreen" stroke="Black" stroke-width="1.875" x="0" y="0" width="99" height="71.25" rx="3.75" ry="3.75" />
<a href="./ValueSet-ObservedGroupingVS.html" target="_top">
<text x="49.5" y="22.5" text-anchor="middle">Observed</text>
</a>
<a href="./ValueSet-ObservedGroupingVS.html" target="_top">
<text x="49.5" y="41.25" text-anchor="middle">Grouping</text>
</a>
<a href="./ValueSet-ObservedGroupingVS.html" target="_top">
<text x="49.5" y="60" text-anchor="middle">ValueSet</text>
</a>
</g>
</g>
<g>
<g transform="translate(346.5 465)">
<a href="StructureDefinition-MGAbnormalityCalcification-definitions.html#Observation.component:observedRegion" target="_top">
<rect fill="LightYellow" stroke="Black" stroke-width="1.875" x="0" y="0" width="193.5" height="52.5" rx="3.75" ry="3.75" />
</a>
<a href="StructureDefinition-MGAbnormalityCalcification-definitions.html#Observation.component:observedRegion" target="_top">
<text x="96.75" y="22.5" text-anchor="middle">Observed Region</text>
</a>
<a href="StructureDefinition-MGAbnormalityCalcification-definitions.html#Observation.component:observedRegion" target="_top">
<text x="96.75" y="41.25" text-anchor="middle">Quantity or Range</text>
</a>
</g>
</g>
<g>
<g transform="translate(346.5 525)">
<a href="StructureDefinition-MGAbnormalityCalcification-definitions.html#Observation.component:biRadsAssessmentCategory" target="_top">
<rect fill="LightYellow" stroke="Black" stroke-width="1.875" x="0" y="0" width="287.99997" height="52.5" rx="3.75" ry="3.75" />
</a>
<a href="StructureDefinition-MGAbnormalityCalcification-definitions.html#Observation.component:biRadsAssessmentCategory" target="_top">
<text x="143.99998" y="22.5" text-anchor="middle">BiRads Assessment Category</text>
</a>
<a href="StructureDefinition-MGAbnormalityCalcification-definitions.html#Observation.component:biRadsAssessmentCategory" target="_top">
<text x="143.99998" y="41.25" text-anchor="middle">CodeableConcept</text>
</a>
</g>
<line stroke="Black" stroke-width="1.875" marker-end="url(#arrowEnd)" x1="649.5" y1="551.25" x2="694.5" y2="551.25" />
<line stroke="Black" stroke-width="1.875" marker-start="url(#arrowStart)" x1="634.5" y1="551.25" x2="649.5" y2="551.25" />
<line stroke="Black" stroke-width="1.875" x1="649.5" y1="551.25" x2="649.5" y2="551.25" />
</g>
<g>
<g transform="translate(694.5 525)">
<rect fill="LightGreen" stroke="Black" stroke-width="1.875" x="0" y="0" width="99" height="52.5" rx="3.75" ry="3.75" />
<a href="./ValueSet-BiRadsAssessmentCategoriesVS.html" target="_top">
<text x="49.5" y="22.5" text-anchor="middle">BiRads</text>
</a>
<a href="./ValueSet-BiRadsAssessmentCategoriesVS.html" target="_top">
<text x="49.5" y="41.25" text-anchor="middle">ValueSet</text>
</a>
</g>
</g>
<g>
<g transform="translate(346.5 585)">
<a href="StructureDefinition-MGAbnormalityCalcification-definitions.html#Observation.component:notPreviouslySeen" target="_top">
<rect fill="LightYellow" stroke="Black" stroke-width="1.875" x="0" y="0" width="214.5" height="52.5" rx="3.75" ry="3.75" />
</a>
<a href="StructureDefinition-MGAbnormalityCalcification-definitions.html#Observation.component:notPreviouslySeen" target="_top">
<text x="107.25" y="22.5" text-anchor="middle">Not Previously Seen</text>
</a>
<a href="StructureDefinition-MGAbnormalityCalcification-definitions.html#Observation.component:notPreviouslySeen" target="_top">
<text x="107.25" y="41.25" text-anchor="middle">CodeableConcept</text>
</a>
</g>
<line stroke="Black" stroke-width="1.875" marker-end="url(#arrowEnd)" x1="576" y1="611.25" x2="621" y2="611.25" />
<line stroke="Black" stroke-width="1.875" marker-start="url(#arrowStart)" x1="561" y1="611.25" x2="576" y2="611.25" />
<line stroke="Black" stroke-width="1.875" x1="576" y1="611.25" x2="576" y2="611.25" />
</g>
<g>
<g transform="translate(621 585)">
<rect fill="LightGreen" stroke="Black" stroke-width="1.875" x="0" y="0" width="193.5" height="52.5" rx="3.75" ry="3.75" />
<a href="./ValueSet-NotPreviouslySeenVS.html" target="_top">
<text x="96.75" y="22.5" text-anchor="middle">NotPreviouslySeen</text>
</a>
<a href="./ValueSet-NotPreviouslySeenVS.html" target="_top">
<text x="96.75" y="41.25" text-anchor="middle">ValueSet</text>
</a>
</g>
</g>
<g>
<g transform="translate(346.5 645)">
<a href="StructureDefinition-MGAbnormalityCalcification-definitions.html#Observation.component:observedCount" target="_top">
<rect fill="LightYellow" stroke="Black" stroke-width="1.875" x="0" y="0" width="193.5" height="52.5" rx="3.75" ry="3.75" />
</a>
<a href="StructureDefinition-MGAbnormalityCalcification-definitions.html#Observation.component:observedCount" target="_top">
<text x="96.75" y="22.5" text-anchor="middle">Observed Count</text>
</a>
<a href="StructureDefinition-MGAbnormalityCalcification-definitions.html#Observation.component:observedCount" target="_top">
<text x="96.75" y="41.25" text-anchor="middle">Quantity or Range</text>
</a>
</g>
</g>
<g>
<g transform="translate(346.5 705)">
<a href="StructureDefinition-MGAbnormalityCalcification-definitions.html#Observation.component:correspondsWith" target="_top">
<rect fill="LightYellow" stroke="Black" stroke-width="1.875" x="0" y="0" width="183" height="52.5" rx="3.75" ry="3.75" />
</a>
<a href="StructureDefinition-MGAbnormalityCalcification-definitions.html#Observation.component:correspondsWith" target="_top">
<text x="91.5" y="22.5" text-anchor="middle">Corresponds With</text>
</a>
<a href="StructureDefinition-MGAbnormalityCalcification-definitions.html#Observation.component:correspondsWith" target="_top">
<text x="91.5" y="41.25" text-anchor="middle">CodeableConcept</text>
</a>
</g>
<line stroke="Black" stroke-width="1.875" marker-end="url(#arrowEnd)" x1="544.5" y1="731.25" x2="589.5" y2="731.25" />
<line stroke="Black" stroke-width="1.875" marker-start="url(#arrowStart)" x1="529.5" y1="731.25" x2="544.5" y2="731.25" />
<line stroke="Black" stroke-width="1.875" x1="544.5" y1="731.25" x2="544.5" y2="731.25" />
</g>
<g>
<g transform="translate(589.5 705)">
<rect fill="LightGreen" stroke="Black" stroke-width="1.875" x="0" y="0" width="172.5" height="52.5" rx="3.75" ry="3.75" />
<a href="./ValueSet-CorrespondsWithVS.html" target="_top">
<text x="86.25" y="22.5" text-anchor="middle">CorrespondsWith</text>
</a>
<a href="./ValueSet-CorrespondsWithVS.html" target="_top">
<text x="86.25" y="41.25" text-anchor="middle">ValueSet</text>
</a>
</g>
</g>
<g>
<g transform="translate(346.5 765)">
<a href="StructureDefinition-MGAbnormalityCalcification-definitions.html#Observation.bodySite.extension:breastBodyLocation" target="_top">
<rect fill="LightSalmon" stroke="Black" stroke-width="1.875" x="0" y="0" width="225" height="52.5" rx="3.75" ry="3.75" />
</a>
<a href="StructureDefinition-MGAbnormalityCalcification-definitions.html#Observation.bodySite.extension:breastBodyLocation" target="_top">
<text x="112.5" y="22.5" text-anchor="middle">Breast Body Location</text>
</a>
<a href="StructureDefinition-MGAbnormalityCalcification-definitions.html#Observation.bodySite.extension:breastBodyLocation" target="_top">
<text x="112.5" y="41.25" text-anchor="middle">extension</text>
</a>
</g>
<line stroke="Black" stroke-width="1.875" marker-end="url(#arrowEnd)" x1="586.5" y1="781.875" x2="631.5" y2="781.875" />
<line stroke="Black" stroke-width="1.875" marker-start="url(#arrowStart)" x1="571.5" y1="791.25" x2="586.5" y2="791.25" />
<line stroke="Black" stroke-width="1.875" x1="586.5" y1="781.875" x2="586.5" y2="791.25" />
</g>
<g>
<g transform="translate(631.5 765)">
<rect fill="LightCyan" stroke="Black" stroke-width="1.875" x="0" y="0" width="183" height="33.75" rx="3.75" ry="3.75" />
<a href="./StructureDefinition-BreastBodyLocationExtension.html" target="_top">
<text x="91.5" y="22.5" text-anchor="middle">Breast Body Loc.</text>
</a>
</g>
</g>
</svg>
