<?xml version="1.0"?>
<!DOCTYPE svg PUBLIC "-//W3C//DTD SVG 1.1//EN" "http://www.w3.org/Graphics/SVG/1.1/DTD/svg11.dtd">
<svg xmlns="http://www.w3.org/2000/svg" version="1.1" width="567" height="165">
<defs>
<marker id="arrowStart" markerWidth="3.75" markerHeight="3.75" markerUnits="px" refX="1.875" refY="1.875">
<circle fill="Black" stroke-width="0" cx="1.875" cy="1.875" r="1.875" />
</marker>
<marker id="arrowEnd" markerWidth="7.5" markerHeight="7.5" markerUnits="px" refX="7.5" refY="3.75">
<polygon fill="Black" stroke-width="0" points="0 0 7.5 3.75 0 7.5" />
</marker>
</defs>
<g>
<g transform="translate(7.5 7.5)">
<rect fill="White" stroke="Black" stroke-width="1.875" x="0" y="0" width="246" height="52.5" rx="3.75" ry="3.75" />
<text x="123" y="22.5" text-anchor="middle">Service Recommendation</text>
<text x="123" y="41.25" text-anchor="middle">Extension</text>
</g>
<line stroke="Black" stroke-width="1.875" marker-end="url(#arrowEnd)" x1="268.5" y1="24.375" x2="313.5" y2="24.375" />
<text x="272.25" y="20.625" text-anchor="left">1..1</text>
<line stroke="Black" stroke-width="1.875" marker-end="url(#arrowEnd)" x1="268.5" y1="75" x2="313.5" y2="75" />
<text x="272.25" y="71.25" text-anchor="left">1..1</text>
<line stroke="Black" stroke-width="1.875" marker-end="url(#arrowEnd)" x1="268.5" y1="125.625" x2="313.5" y2="125.625" />
<text x="272.25" y="121.875" text-anchor="left">1..1</text>
<line stroke="Black" stroke-width="1.875" marker-start="url(#arrowStart)" x1="253.5" y1="33.75" x2="268.5" y2="33.75" />
<line stroke="Black" stroke-width="1.875" x1="268.5" y1="24.375" x2="268.5" y2="125.625" />
</g>
<g>
<g transform="translate(313.5 7.5)">
<rect fill="LightCyan" stroke="Black" stroke-width="1.875" x="0" y="0" width="193.5" height="33.75" rx="3.75" ry="3.75" />
<a href="http://hl7.org/fhir/StructureDefinition/MedicationRequest" target="_top">
<text x="96.75" y="22.5" text-anchor="middle">MedicationRequest</text>
</a>
</g>
</g>
<g>
<g transform="translate(313.5 48.75)">
<rect fill="LightCyan" stroke="Black" stroke-width="1.875" x="0" y="0" width="162" height="52.5" rx="3.75" ry="3.75" />
<a href="./StructureDefinition-ServiceRecommendation.html" target="_top">
<text x="81" y="22.5" text-anchor="middle">Service</text>
</a>
<a href="./StructureDefinition-ServiceRecommendation.html" target="_top">
<text x="81" y="41.25" text-anchor="middle">Recommendation</text>
</a>
</g>
</g>
<g>
<g transform="translate(313.5 108.75)">
<rect fill="LightCyan" stroke="Black" stroke-width="1.875" x="0" y="0" width="162" height="33.75" rx="3.75" ry="3.75" />
<a href="http://hl7.org/fhir/StructureDefinition/ServiceRequest" target="_top">
<text x="81" y="22.5" text-anchor="middle">ServiceRequest</text>
</a>
</g>
</g>
</svg>
