<?xml version="1.0"?>
<!DOCTYPE svg PUBLIC "-//W3C//DTD SVG 1.1//EN" "http://www.w3.org/Graphics/SVG/1.1/DTD/svg11.dtd">
<svg xmlns="http://www.w3.org/2000/svg" version="1.1" width="883.5" height="427.5">
<defs>
<marker id="arrowStart" markerWidth="3.75" markerHeight="3.75" markerUnits="px" refX="1.875" refY="1.875">
<circle fill="Black" stroke-width="0" cx="1.875" cy="1.875" r="1.875" />
</marker>
<marker id="arrowEnd" markerWidth="7.5" markerHeight="7.5" markerUnits="px" refX="7.5" refY="3.75">
<polygon fill="Black" stroke-width="0" points="0 0 7.5 3.75 0 7.5" />
</marker>
</defs>
<g>
<g transform="translate(7.5 7.5)">
<rect fill="White" stroke="Black" stroke-width="1.875" x="0" y="0" width="183" height="33.75" rx="3.75" ry="3.75" />
<text x="91.5" y="22.5" text-anchor="middle">Breast Body Loc.</text>
</g>
<line stroke="Black" stroke-width="1.875" marker-end="url(#arrowEnd)" x1="205.5" y1="33.75" x2="250.50002" y2="33.75" />
<text x="209.25" y="30" text-anchor="left">1..1</text>
<line stroke="Black" stroke-width="1.875" marker-end="url(#arrowEnd)" x1="205.5" y1="93.75" x2="250.50002" y2="93.75" />
<text x="209.25" y="90" text-anchor="left">1..1</text>
<line stroke="Black" stroke-width="1.875" marker-end="url(#arrowEnd)" x1="205.5" y1="144.375" x2="250.50002" y2="144.375" />
<text x="209.25" y="140.625" text-anchor="left">0..1</text>
<line stroke="Black" stroke-width="1.875" marker-end="url(#arrowEnd)" x1="205.5" y1="185.625" x2="250.50002" y2="185.625" />
<text x="209.25" y="181.875" text-anchor="left">0..1</text>
<line stroke="Black" stroke-width="1.875" marker-end="url(#arrowEnd)" x1="205.5" y1="226.875" x2="250.50002" y2="226.875" />
<text x="209.25" y="223.125" text-anchor="left">0..1</text>
<line stroke="Black" stroke-width="1.875" marker-end="url(#arrowEnd)" x1="205.5" y1="268.125" x2="250.50002" y2="268.125" />
<text x="209.25" y="264.375" text-anchor="left">1..1</text>
<line stroke="Black" stroke-width="1.875" marker-end="url(#arrowEnd)" x1="205.5" y1="318.75" x2="250.50002" y2="318.75" />
<text x="209.25" y="315" text-anchor="left">1..1</text>
<line stroke="Black" stroke-width="1.875" marker-end="url(#arrowEnd)" x1="205.5" y1="378.75" x2="250.50002" y2="378.75" />
<text x="209.25" y="375" text-anchor="left">0..*</text>
<line stroke="Black" stroke-width="1.875" marker-start="url(#arrowStart)" x1="190.5" y1="24.375" x2="205.5" y2="24.375" />
<line stroke="Black" stroke-width="1.875" x1="205.5" y1="24.375" x2="205.5" y2="378.75" />
</g>
<g>
<g transform="translate(250.50002 7.5)">
<a href="StructureDefinition-BreastBodyLocationExtension-definitions.html#Extension.extension" target="_top">
<rect fill="LightYellow" stroke="Black" stroke-width="1.875" x="0" y="0" width="172.5" height="52.5" rx="3.75" ry="3.75" />
</a>
<a href="StructureDefinition-BreastBodyLocationExtension-definitions.html#Extension.extension" target="_top">
<text x="86.25" y="22.5" text-anchor="middle">ClockDirection</text>
</a>
<a href="StructureDefinition-BreastBodyLocationExtension-definitions.html#Extension.extension" target="_top">
<text x="86.25" y="41.25" text-anchor="middle">CodeableConcept</text>
</a>
</g>
<line stroke="Black" stroke-width="1.875" marker-end="url(#arrowEnd)" x1="438" y1="33.75" x2="483" y2="33.75" />
<line stroke="Black" stroke-width="1.875" marker-start="url(#arrowStart)" x1="423" y1="33.75" x2="438" y2="33.75" />
<line stroke="Black" stroke-width="1.875" x1="438" y1="33.75" x2="438" y2="33.75" />
</g>
<g>
<g transform="translate(483 7.5)">
<rect fill="LightGreen" stroke="Black" stroke-width="1.875" x="0" y="0" width="172.5" height="52.5" rx="3.75" ry="3.75" />
<a href="./ValueSet-BreastLocationClockVS.html" target="_top">
<text x="86.25" y="22.5" text-anchor="middle">Breast Location</text>
</a>
<a href="./ValueSet-BreastLocationClockVS.html" target="_top">
<text x="86.25" y="41.25" text-anchor="middle">Clock ValueSet</text>
</a>
</g>
</g>
<g>
<g transform="translate(250.50002 67.5)">
<a href="StructureDefinition-BreastBodyLocationExtension-definitions.html#Extension.extension" target="_top">
<rect fill="LightYellow" stroke="Black" stroke-width="1.875" x="0" y="0" width="172.5" height="52.5" rx="3.75" ry="3.75" />
</a>
<a href="StructureDefinition-BreastBodyLocationExtension-definitions.html#Extension.extension" target="_top">
<text x="86.25" y="22.5" text-anchor="middle">Depth</text>
</a>
<a href="StructureDefinition-BreastBodyLocationExtension-definitions.html#Extension.extension" target="_top">
<text x="86.25" y="41.25" text-anchor="middle">CodeableConcept</text>
</a>
</g>
<line stroke="Black" stroke-width="1.875" marker-end="url(#arrowEnd)" x1="438" y1="93.75" x2="483" y2="93.75" />
<line stroke="Black" stroke-width="1.875" marker-start="url(#arrowStart)" x1="423" y1="93.75" x2="438" y2="93.75" />
<line stroke="Black" stroke-width="1.875" x1="438" y1="93.75" x2="438" y2="93.75" />
</g>
<g>
<g transform="translate(483 67.5)">
<rect fill="LightGreen" stroke="Black" stroke-width="1.875" x="0" y="0" width="172.5" height="52.5" rx="3.75" ry="3.75" />
<a href="./ValueSet-BreastLocationDepthVS.html" target="_top">
<text x="86.25" y="22.5" text-anchor="middle">Breast Location</text>
</a>
<a href="./ValueSet-BreastLocationDepthVS.html" target="_top">
<text x="86.25" y="41.25" text-anchor="middle">Depth ValueSet</text>
</a>
</g>
</g>
<g>
<g transform="translate(250.50002 127.5)">
<a href="StructureDefinition-BreastBodyLocationExtension-definitions.html#Extension.extension:distanceFromChestWall" target="_top">
<rect fill="LightSkyBlue" stroke="Black" stroke-width="1.875" x="0" y="0" width="267" height="33.75" rx="3.75" ry="3.75" />
</a>
<a href="StructureDefinition-BreastBodyLocationExtension-definitions.html#Extension.extension:distanceFromChestWall" target="_top">
<text x="133.5" y="22.5" text-anchor="middle">Distance From Chest Wall</text>
</a>
</g>
<line stroke="Black" stroke-width="1.875" marker-end="url(#arrowEnd)" x1="532.5" y1="144.375" x2="577.5" y2="144.375" />
<line stroke="Black" stroke-width="1.875" marker-start="url(#arrowStart)" x1="517.5" y1="144.375" x2="532.5" y2="144.375" />
<line stroke="Black" stroke-width="1.875" x1="532.5" y1="144.375" x2="532.5" y2="144.375" />
</g>
<g>
<g transform="translate(577.5 127.5)">
<rect fill="LightBlue" stroke="Black" stroke-width="1.875" x="0" y="0" width="172.5" height="33.75" rx="3.75" ry="3.75" />
<a href="./StructureDefinition-BodyDistanceFromExtension.html" target="_top">
<text x="86.25" y="22.5" text-anchor="middle">Body Dist. From</text>
</a>
</g>
</g>
<g>
<g transform="translate(250.50002 168.75)">
<a href="StructureDefinition-BreastBodyLocationExtension-definitions.html#Extension.extension:distanceFromNipple" target="_top">
<rect fill="LightSkyBlue" stroke="Black" stroke-width="1.875" x="0" y="0" width="225" height="33.75" rx="3.75" ry="3.75" />
</a>
<a href="StructureDefinition-BreastBodyLocationExtension-definitions.html#Extension.extension:distanceFromNipple" target="_top">
<text x="112.5" y="22.5" text-anchor="middle">Distance From Nipple</text>
</a>
</g>
<line stroke="Black" stroke-width="1.875" marker-end="url(#arrowEnd)" x1="490.5" y1="185.625" x2="535.5" y2="185.625" />
<line stroke="Black" stroke-width="1.875" marker-start="url(#arrowStart)" x1="475.5" y1="185.625" x2="490.5" y2="185.625" />
<line stroke="Black" stroke-width="1.875" x1="490.5" y1="185.625" x2="490.5" y2="185.625" />
</g>
<g>
<g transform="translate(535.5 168.75)">
<rect fill="LightBlue" stroke="Black" stroke-width="1.875" x="0" y="0" width="172.5" height="33.75" rx="3.75" ry="3.75" />
<a href="./StructureDefinition-BodyDistanceFromExtension.html" target="_top">
<text x="86.25" y="22.5" text-anchor="middle">Body Dist. From</text>
</a>
</g>
</g>
<g>
<g transform="translate(250.50002 210)">
<a href="StructureDefinition-BreastBodyLocationExtension-definitions.html#Extension.extension:distanceFromSkin" target="_top">
<rect fill="LightSkyBlue" stroke="Black" stroke-width="1.875" x="0" y="0" width="203.99998" height="33.75" rx="3.75" ry="3.75" />
</a>
<a href="StructureDefinition-BreastBodyLocationExtension-definitions.html#Extension.extension:distanceFromSkin" target="_top">
<text x="101.99999" y="22.5" text-anchor="middle">Distance From Skin</text>
</a>
</g>
<line stroke="Black" stroke-width="1.875" marker-end="url(#arrowEnd)" x1="469.5" y1="226.875" x2="514.5" y2="226.875" />
<line stroke="Black" stroke-width="1.875" marker-start="url(#arrowStart)" x1="454.5" y1="226.875" x2="469.5" y2="226.875" />
<line stroke="Black" stroke-width="1.875" x1="469.5" y1="226.875" x2="469.5" y2="226.875" />
</g>
<g>
<g transform="translate(514.5 210)">
<rect fill="LightBlue" stroke="Black" stroke-width="1.875" x="0" y="0" width="172.5" height="33.75" rx="3.75" ry="3.75" />
<a href="./StructureDefinition-BodyDistanceFromExtension.html" target="_top">
<text x="86.25" y="22.5" text-anchor="middle">Body Dist. From</text>
</a>
</g>
</g>
<g>
<g transform="translate(250.50002 251.25)">
<a href="StructureDefinition-BreastBodyLocationExtension-definitions.html#Extension.extension:laterality" target="_top">
<rect fill="LightSkyBlue" stroke="Black" stroke-width="1.875" x="0" y="0" width="120" height="33.75" rx="3.75" ry="3.75" />
</a>
<a href="StructureDefinition-BreastBodyLocationExtension-definitions.html#Extension.extension:laterality" target="_top">
<text x="60" y="22.5" text-anchor="middle">Laterality</text>
</a>
</g>
<line stroke="Black" stroke-width="1.875" marker-end="url(#arrowEnd)" x1="385.5" y1="268.125" x2="430.5" y2="268.125" />
<line stroke="Black" stroke-width="1.875" marker-start="url(#arrowStart)" x1="370.5" y1="268.125" x2="385.5" y2="268.125" />
<line stroke="Black" stroke-width="1.875" x1="385.5" y1="268.125" x2="385.5" y2="268.125" />
</g>
<g>
<g transform="translate(430.5 251.25)">
<rect fill="LightGreen" stroke="Black" stroke-width="1.875" x="0" y="0" width="392.99997" height="33.75" rx="3.75" ry="3.75" />
<a href="https://build.fhir.org/ig/HL7/fhir-skin-wound-ig/branches/master/StructureDefinition-BodySideExt.html" target="_top">
<text x="196.49998" y="22.5" text-anchor="middle">StructureDefinition-BodySideExt.html</text>
</a>
</g>
</g>
<g>
<g transform="translate(250.50002 292.5)">
<a href="StructureDefinition-BreastBodyLocationExtension-definitions.html#Extension.extension:quadrant" target="_top">
<rect fill="LightYellow" stroke="Black" stroke-width="1.875" x="0" y="0" width="172.5" height="52.5" rx="3.75" ry="3.75" />
</a>
<a href="StructureDefinition-BreastBodyLocationExtension-definitions.html#Extension.extension:quadrant" target="_top">
<text x="86.25" y="22.5" text-anchor="middle">Quadrant</text>
</a>
<a href="StructureDefinition-BreastBodyLocationExtension-definitions.html#Extension.extension:quadrant" target="_top">
<text x="86.25" y="41.25" text-anchor="middle">CodeableConcept</text>
</a>
</g>
<line stroke="Black" stroke-width="1.875" marker-end="url(#arrowEnd)" x1="438" y1="318.75" x2="483" y2="318.75" />
<line stroke="Black" stroke-width="1.875" marker-start="url(#arrowStart)" x1="423" y1="318.75" x2="438" y2="318.75" />
<line stroke="Black" stroke-width="1.875" x1="438" y1="318.75" x2="438" y2="318.75" />
</g>
<g>
<g transform="translate(483 292.5)">
<rect fill="LightGreen" stroke="Black" stroke-width="1.875" x="0" y="0" width="193.5" height="52.5" rx="3.75" ry="3.75" />
<a href="./ValueSet-BreastLocationQuadrantVS.html" target="_top">
<text x="96.75" y="22.5" text-anchor="middle">Breast Location</text>
</a>
<a href="./ValueSet-BreastLocationQuadrantVS.html" target="_top">
<text x="96.75" y="41.25" text-anchor="middle">Quadrant ValueSet</text>
</a>
</g>
</g>
<g>
<g transform="translate(250.50002 352.5)">
<a href="StructureDefinition-BreastBodyLocationExtension-definitions.html#Extension.extension" target="_top">
<rect fill="LightYellow" stroke="Black" stroke-width="1.875" x="0" y="0" width="172.5" height="52.5" rx="3.75" ry="3.75" />
</a>
<a href="StructureDefinition-BreastBodyLocationExtension-definitions.html#Extension.extension" target="_top">
<text x="86.25" y="22.5" text-anchor="middle">Region</text>
</a>
<a href="StructureDefinition-BreastBodyLocationExtension-definitions.html#Extension.extension" target="_top">
<text x="86.25" y="41.25" text-anchor="middle">CodeableConcept</text>
</a>
</g>
<line stroke="Black" stroke-width="1.875" marker-end="url(#arrowEnd)" x1="438" y1="378.75" x2="483" y2="378.75" />
<line stroke="Black" stroke-width="1.875" marker-start="url(#arrowStart)" x1="423" y1="378.75" x2="438" y2="378.75" />
<line stroke="Black" stroke-width="1.875" x1="438" y1="378.75" x2="438" y2="378.75" />
</g>
<g>
<g transform="translate(483 352.5)">
<rect fill="LightGreen" stroke="Black" stroke-width="1.875" x="0" y="0" width="172.5" height="52.5" rx="3.75" ry="3.75" />
<a href="./ValueSet-BreastLocationRegionVS.html" target="_top">
<text x="86.25" y="22.5" text-anchor="middle">Breast Location</text>
</a>
<a href="./ValueSet-BreastLocationRegionVS.html" target="_top">
<text x="86.25" y="41.25" text-anchor="middle">Region ValueSet</text>
</a>
</g>
</g>
</svg>
