<?xml version="1.0"?>
<!DOCTYPE svg PUBLIC "-//W3C//DTD SVG 1.1//EN" "http://www.w3.org/Graphics/SVG/1.1/DTD/svg11.dtd">
<svg xmlns="http://www.w3.org/2000/svg" version="1.1" width="1074" height="862.5">
<defs>
<marker id="arrowStart" markerWidth="3.75" markerHeight="3.75" markerUnits="px" refX="1.875" refY="1.875">
<circle fill="Black" stroke-width="0" cx="1.875" cy="1.875" r="1.875" />
</marker>
<marker id="arrowEnd" markerWidth="7.5" markerHeight="7.5" markerUnits="px" refX="7.5" refY="3.75">
<polygon fill="Black" stroke-width="0" points="0 0 7.5 3.75 0 7.5" />
</marker>
</defs>
<g>
<g transform="translate(7.5 7.5)">
<rect fill="LightCyan" stroke="Black" stroke-width="1.875" x="0" y="0" width="120" height="52.5" rx="3.75" ry="3.75" />
<a href="./StructureDefinition-AssociatedFeatures.html" target="_top">
<text x="60" y="22.5" text-anchor="middle">Associated</text>
</a>
<a href="./StructureDefinition-AssociatedFeatures.html" target="_top">
<text x="60" y="41.25" text-anchor="middle">Features</text>
</a>
</g>
<g transform="translate(7.5 67.5)">
<rect fill="LightCyan" stroke="Black" stroke-width="1.875" x="0" y="0" width="120" height="33.75" rx="3.75" ry="3.75" />
<a href="./StructureDefinition-MGFinding.html" target="_top">
<text x="60" y="22.5" text-anchor="middle">MG Finding</text>
</a>
</g>
<line stroke="Black" stroke-width="1.875" marker-end="url(#arrowEnd)" x1="142.5" y1="24.375" x2="187.5" y2="24.375" />
<text x="146.25" y="20.625" text-anchor="left"></text>
<line stroke="Black" stroke-width="1.875" marker-start="url(#arrowStart)" x1="127.5" y1="33.75" x2="142.5" y2="33.75" />
<line stroke="Black" stroke-width="1.875" marker-start="url(#arrowStart)" x1="127.5" y1="84.375" x2="142.5" y2="84.375" />
<line stroke="Black" stroke-width="1.875" x1="142.5" y1="24.375" x2="142.5" y2="84.375" />
</g>
<g>
<g transform="translate(187.5 7.5)">
<rect fill="White" stroke="Black" stroke-width="1.875" x="0" y="0" width="214.5" height="33.75" rx="3.75" ry="3.75" />
<text x="107.25" y="22.5" text-anchor="middle">MG Arch. Distortion</text>
</g>
<line stroke="Black" stroke-width="1.875" marker-end="url(#arrowEnd)" x1="417" y1="33.75" x2="462" y2="33.75" />
<text x="420.75" y="30" text-anchor="left">0..1</text>
<line stroke="Black" stroke-width="1.875" marker-end="url(#arrowEnd)" x1="417" y1="93.75" x2="462" y2="93.75" />
<text x="420.75" y="90" text-anchor="left">0..*</text>
<line stroke="Black" stroke-width="1.875" marker-end="url(#arrowEnd)" x1="417" y1="153.75" x2="462" y2="153.75" />
<text x="420.75" y="150" text-anchor="left">0..1</text>
<line stroke="Black" stroke-width="1.875" marker-end="url(#arrowEnd)" x1="417" y1="204.375" x2="462" y2="204.375" />
<text x="420.75" y="200.625" text-anchor="left">1..1</text>
<line stroke="Black" stroke-width="1.875" marker-end="url(#arrowEnd)" x1="417" y1="255" x2="462" y2="255" />
<text x="420.75" y="251.25" text-anchor="left">0..*</text>
<line stroke="Black" stroke-width="1.875" marker-end="url(#arrowEnd)" x1="417" y1="315" x2="462" y2="315" />
<text x="420.75" y="311.25" text-anchor="left">0..1</text>
<line stroke="Black" stroke-width="1.875" marker-end="url(#arrowEnd)" x1="417" y1="375" x2="462" y2="375" />
<text x="420.75" y="371.25" text-anchor="left">0..1</text>
<line stroke="Black" stroke-width="1.875" marker-end="url(#arrowEnd)" x1="417" y1="435" x2="462" y2="435" />
<text x="420.75" y="431.25" text-anchor="left">0..*</text>
<line stroke="Black" stroke-width="1.875" marker-end="url(#arrowEnd)" x1="417" y1="495" x2="462" y2="495" />
<text x="420.75" y="491.25" text-anchor="left">0..*</text>
<line stroke="Black" stroke-width="1.875" marker-end="url(#arrowEnd)" x1="417" y1="573.75" x2="462" y2="573.75" />
<text x="420.75" y="570" text-anchor="left">0..1</text>
<line stroke="Black" stroke-width="1.875" marker-end="url(#arrowEnd)" x1="417" y1="633.75" x2="462" y2="633.75" />
<text x="420.75" y="630" text-anchor="left">0..1</text>
<line stroke="Black" stroke-width="1.875" marker-end="url(#arrowEnd)" x1="417" y1="693.75" x2="462" y2="693.75" />
<text x="420.75" y="690" text-anchor="left">0..1</text>
<line stroke="Black" stroke-width="1.875" marker-end="url(#arrowEnd)" x1="417" y1="744.375" x2="462" y2="744.375" />
<text x="420.75" y="740.625" text-anchor="left">0..*</text>
<line stroke="Black" stroke-width="1.875" marker-end="url(#arrowEnd)" x1="417" y1="813.75" x2="462" y2="813.75" />
<text x="420.75" y="810" text-anchor="left">0..1</text>
<line stroke="Black" stroke-width="1.875" marker-start="url(#arrowStart)" x1="402" y1="24.375" x2="417" y2="24.375" />
<line stroke="Black" stroke-width="1.875" x1="417" y1="24.375" x2="417" y2="813.75" />
</g>
<g>
<g transform="translate(462 7.5)">
<rect fill="LightCyan" stroke="Black" stroke-width="1.875" x="0" y="0" width="120" height="52.5" rx="3.75" ry="3.75" />
<a href="./StructureDefinition-AssociatedFeatures.html" target="_top">
<text x="60" y="22.5" text-anchor="middle">Associated</text>
</a>
<a href="./StructureDefinition-AssociatedFeatures.html" target="_top">
<text x="60" y="41.25" text-anchor="middle">Features</text>
</a>
</g>
</g>
<g>
<g transform="translate(462 67.5)">
<rect fill="LightCyan" stroke="Black" stroke-width="1.875" x="0" y="0" width="120" height="52.5" rx="3.75" ry="3.75" />
<a href="./StructureDefinition-ConsistentWith.html" target="_top">
<text x="60" y="22.5" text-anchor="middle">Consistent</text>
</a>
<a href="./StructureDefinition-ConsistentWith.html" target="_top">
<text x="60" y="41.25" text-anchor="middle">With</text>
</a>
</g>
</g>
<g>
<g transform="translate(462 127.5)">
<a href="StructureDefinition-MGAbnormalityArchitecturalDistortion-definitions.html#Observation.component:biRadsAssessmentCategory" target="_top">
<rect fill="LightYellow" stroke="Black" stroke-width="1.875" x="0" y="0" width="287.99997" height="52.5" rx="3.75" ry="3.75" />
</a>
<a href="StructureDefinition-MGAbnormalityArchitecturalDistortion-definitions.html#Observation.component:biRadsAssessmentCategory" target="_top">
<text x="143.99998" y="22.5" text-anchor="middle">BiRads Assessment Category</text>
</a>
<a href="StructureDefinition-MGAbnormalityArchitecturalDistortion-definitions.html#Observation.component:biRadsAssessmentCategory" target="_top">
<text x="143.99998" y="41.25" text-anchor="middle">CodeableConcept</text>
</a>
</g>
<line stroke="Black" stroke-width="1.875" marker-end="url(#arrowEnd)" x1="765" y1="153.75" x2="810" y2="153.75" />
<line stroke="Black" stroke-width="1.875" marker-start="url(#arrowStart)" x1="750" y1="153.75" x2="765" y2="153.75" />
<line stroke="Black" stroke-width="1.875" x1="765" y1="153.75" x2="765" y2="153.75" />
</g>
<g>
<g transform="translate(810 127.5)">
<rect fill="LightGreen" stroke="Black" stroke-width="1.875" x="0" y="0" width="99" height="52.5" rx="3.75" ry="3.75" />
<a href="./ValueSet-BiRadsAssessmentCategoriesVS.html" target="_top">
<text x="49.5" y="22.5" text-anchor="middle">BiRads</text>
</a>
<a href="./ValueSet-BiRadsAssessmentCategoriesVS.html" target="_top">
<text x="49.5" y="41.25" text-anchor="middle">ValueSet</text>
</a>
</g>
</g>
<g>
<g transform="translate(462 187.5)">
<a href="StructureDefinition-MGAbnormalityArchitecturalDistortion-definitions.html#Observation.bodySite.extension:breastBodyLocation" target="_top">
<rect fill="LightSkyBlue" stroke="Black" stroke-width="1.875" x="0" y="0" width="225" height="33.75" rx="3.75" ry="3.75" />
</a>
<a href="StructureDefinition-MGAbnormalityArchitecturalDistortion-definitions.html#Observation.bodySite.extension:breastBodyLocation" target="_top">
<text x="112.5" y="22.5" text-anchor="middle">Breast Body Location</text>
</a>
</g>
<line stroke="Black" stroke-width="1.875" marker-end="url(#arrowEnd)" x1="702" y1="204.375" x2="747" y2="204.375" />
<line stroke="Black" stroke-width="1.875" marker-start="url(#arrowStart)" x1="687" y1="204.375" x2="702" y2="204.375" />
<line stroke="Black" stroke-width="1.875" x1="702" y1="204.375" x2="702" y2="204.375" />
</g>
<g>
<g transform="translate(747 187.5)">
<rect fill="LightBlue" stroke="Black" stroke-width="1.875" x="0" y="0" width="183" height="33.75" rx="3.75" ry="3.75" />
<a href="./StructureDefinition-BreastBodyLocationExtension.html" target="_top">
<text x="91.5" y="22.5" text-anchor="middle">Breast Body Loc.</text>
</a>
</g>
</g>
<g>
<g transform="translate(462 228.75)">
<a href="StructureDefinition-MGAbnormalityArchitecturalDistortion-definitions.html#Observation.component:correspondsWith" target="_top">
<rect fill="LightYellow" stroke="Black" stroke-width="1.875" x="0" y="0" width="183" height="52.5" rx="3.75" ry="3.75" />
</a>
<a href="StructureDefinition-MGAbnormalityArchitecturalDistortion-definitions.html#Observation.component:correspondsWith" target="_top">
<text x="91.5" y="22.5" text-anchor="middle">Corresponds With</text>
</a>
<a href="StructureDefinition-MGAbnormalityArchitecturalDistortion-definitions.html#Observation.component:correspondsWith" target="_top">
<text x="91.5" y="41.25" text-anchor="middle">CodeableConcept</text>
</a>
</g>
<line stroke="Black" stroke-width="1.875" marker-end="url(#arrowEnd)" x1="660" y1="255" x2="705" y2="255" />
<line stroke="Black" stroke-width="1.875" marker-start="url(#arrowStart)" x1="645" y1="255" x2="660" y2="255" />
<line stroke="Black" stroke-width="1.875" x1="660" y1="255" x2="660" y2="255" />
</g>
<g>
<g transform="translate(705 228.75)">
<rect fill="LightGreen" stroke="Black" stroke-width="1.875" x="0" y="0" width="172.5" height="52.5" rx="3.75" ry="3.75" />
<a href="./ValueSet-CorrespondsWithVS.html" target="_top">
<text x="86.25" y="22.5" text-anchor="middle">CorrespondsWith</text>
</a>
<a href="./ValueSet-CorrespondsWithVS.html" target="_top">
<text x="86.25" y="41.25" text-anchor="middle">ValueSet</text>
</a>
</g>
</g>
<g>
<g transform="translate(462 288.75)">
<a href="StructureDefinition-MGAbnormalityArchitecturalDistortion-definitions.html#Observation.component:mgDensity" target="_top">
<rect fill="LightYellow" stroke="Black" stroke-width="1.875" x="0" y="0" width="172.5" height="52.5" rx="3.75" ry="3.75" />
</a>
<a href="StructureDefinition-MGAbnormalityArchitecturalDistortion-definitions.html#Observation.component:mgDensity" target="_top">
<text x="86.25" y="22.5" text-anchor="middle">Density</text>
</a>
<a href="StructureDefinition-MGAbnormalityArchitecturalDistortion-definitions.html#Observation.component:mgDensity" target="_top">
<text x="86.25" y="41.25" text-anchor="middle">CodeableConcept</text>
</a>
</g>
<line stroke="Black" stroke-width="1.875" marker-end="url(#arrowEnd)" x1="649.5" y1="305.625" x2="694.5" y2="305.625" />
<line stroke="Black" stroke-width="1.875" marker-start="url(#arrowStart)" x1="634.5" y1="315" x2="649.5" y2="315" />
<line stroke="Black" stroke-width="1.875" x1="649.5" y1="305.625" x2="649.5" y2="315" />
</g>
<g>
<g transform="translate(694.5 288.75)">
<rect fill="LightGreen" stroke="Black" stroke-width="1.875" x="0" y="0" width="214.5" height="33.75" rx="3.75" ry="3.75" />
<a href="./ValueSet-MGDensityVS.html" target="_top">
<text x="107.25" y="22.5" text-anchor="middle">MG Density ValueSet</text>
</a>
</g>
</g>
<g>
<g transform="translate(462 348.75)">
<a href="StructureDefinition-MGAbnormalityArchitecturalDistortion-definitions.html#Observation.component:margin" target="_top">
<rect fill="LightYellow" stroke="Black" stroke-width="1.875" x="0" y="0" width="172.5" height="52.5" rx="3.75" ry="3.75" />
</a>
<a href="StructureDefinition-MGAbnormalityArchitecturalDistortion-definitions.html#Observation.component:margin" target="_top">
<text x="86.25" y="22.5" text-anchor="middle">Margin</text>
</a>
<a href="StructureDefinition-MGAbnormalityArchitecturalDistortion-definitions.html#Observation.component:margin" target="_top">
<text x="86.25" y="41.25" text-anchor="middle">CodeableConcept</text>
</a>
</g>
<line stroke="Black" stroke-width="1.875" marker-end="url(#arrowEnd)" x1="649.5" y1="365.625" x2="694.5" y2="365.625" />
<line stroke="Black" stroke-width="1.875" marker-start="url(#arrowStart)" x1="634.5" y1="375" x2="649.5" y2="375" />
<line stroke="Black" stroke-width="1.875" x1="649.5" y1="365.625" x2="649.5" y2="375" />
</g>
<g>
<g transform="translate(694.5 348.75)">
<rect fill="LightGreen" stroke="Black" stroke-width="1.875" x="0" y="0" width="162" height="33.75" rx="3.75" ry="3.75" />
<a href="./ValueSet-MarginVS.html" target="_top">
<text x="81" y="22.5" text-anchor="middle">MarginValueSet</text>
</a>
</g>
</g>
<g>
<g transform="translate(462 408.75)">
<a href="StructureDefinition-MGAbnormalityArchitecturalDistortion-definitions.html#Observation.component:notPreviouslySeen" target="_top">
<rect fill="LightYellow" stroke="Black" stroke-width="1.875" x="0" y="0" width="214.5" height="52.5" rx="3.75" ry="3.75" />
</a>
<a href="StructureDefinition-MGAbnormalityArchitecturalDistortion-definitions.html#Observation.component:notPreviouslySeen" target="_top">
<text x="107.25" y="22.5" text-anchor="middle">Not Previously Seen</text>
</a>
<a href="StructureDefinition-MGAbnormalityArchitecturalDistortion-definitions.html#Observation.component:notPreviouslySeen" target="_top">
<text x="107.25" y="41.25" text-anchor="middle">CodeableConcept</text>
</a>
</g>
<line stroke="Black" stroke-width="1.875" marker-end="url(#arrowEnd)" x1="691.5" y1="435" x2="736.5" y2="435" />
<line stroke="Black" stroke-width="1.875" marker-start="url(#arrowStart)" x1="676.5" y1="435" x2="691.5" y2="435" />
<line stroke="Black" stroke-width="1.875" x1="691.5" y1="435" x2="691.5" y2="435" />
</g>
<g>
<g transform="translate(736.5 408.75)">
<rect fill="LightGreen" stroke="Black" stroke-width="1.875" x="0" y="0" width="193.5" height="52.5" rx="3.75" ry="3.75" />
<a href="./ValueSet-NotPreviouslySeenVS.html" target="_top">
<text x="96.75" y="22.5" text-anchor="middle">NotPreviouslySeen</text>
</a>
<a href="./ValueSet-NotPreviouslySeenVS.html" target="_top">
<text x="96.75" y="41.25" text-anchor="middle">ValueSet</text>
</a>
</g>
</g>
<g>
<g transform="translate(462 468.75)">
<a href="StructureDefinition-MGAbnormalityArchitecturalDistortion-definitions.html#Observation.component:observedChanges" target="_top">
<rect fill="LightYellow" stroke="Black" stroke-width="1.875" x="0" y="0" width="330" height="52.5" rx="3.75" ry="3.75" />
</a>
<a href="StructureDefinition-MGAbnormalityArchitecturalDistortion-definitions.html#Observation.component:observedChanges" target="_top">
<text x="165" y="22.5" text-anchor="middle">Observed Change In Abnormality</text>
</a>
<a href="StructureDefinition-MGAbnormalityArchitecturalDistortion-definitions.html#Observation.component:observedChanges" target="_top">
<text x="165" y="41.25" text-anchor="middle">CodeableConcept</text>
</a>
</g>
<line stroke="Black" stroke-width="1.875" marker-end="url(#arrowEnd)" x1="807" y1="504.375" x2="852" y2="504.375" />
<line stroke="Black" stroke-width="1.875" marker-start="url(#arrowStart)" x1="792" y1="495" x2="807" y2="495" />
<line stroke="Black" stroke-width="1.875" x1="807" y1="495" x2="807" y2="504.375" />
</g>
<g>
<g transform="translate(852 468.75)">
<rect fill="LightGreen" stroke="Black" stroke-width="1.875" x="0" y="0" width="99" height="71.25" rx="3.75" ry="3.75" />
<a href="./ValueSet-ObservedChangesVS.html" target="_top">
<text x="49.5" y="22.5" text-anchor="middle">Observed</text>
</a>
<a href="./ValueSet-ObservedChangesVS.html" target="_top">
<text x="49.5" y="41.25" text-anchor="middle">Change</text>
</a>
<a href="./ValueSet-ObservedChangesVS.html" target="_top">
<text x="49.5" y="60" text-anchor="middle">ValueSet</text>
</a>
</g>
</g>
<g>
<g transform="translate(462 547.5)">
<a href="StructureDefinition-MGAbnormalityArchitecturalDistortion-definitions.html#Observation.component:observedRegion" target="_top">
<rect fill="LightYellow" stroke="Black" stroke-width="1.875" x="0" y="0" width="193.5" height="52.5" rx="3.75" ry="3.75" />
</a>
<a href="StructureDefinition-MGAbnormalityArchitecturalDistortion-definitions.html#Observation.component:observedRegion" target="_top">
<text x="96.75" y="22.5" text-anchor="middle">Observed Region</text>
</a>
<a href="StructureDefinition-MGAbnormalityArchitecturalDistortion-definitions.html#Observation.component:observedRegion" target="_top">
<text x="96.75" y="41.25" text-anchor="middle">Quantity or Range</text>
</a>
</g>
</g>
<g>
<g transform="translate(462 607.5)">
<a href="StructureDefinition-MGAbnormalityArchitecturalDistortion-definitions.html#Observation.component:observedSize" target="_top">
<rect fill="LightYellow" stroke="Black" stroke-width="1.875" x="0" y="0" width="193.5" height="52.5" rx="3.75" ry="3.75" />
</a>
<a href="StructureDefinition-MGAbnormalityArchitecturalDistortion-definitions.html#Observation.component:observedSize" target="_top">
<text x="96.75" y="22.5" text-anchor="middle">Observed Size</text>
</a>
<a href="StructureDefinition-MGAbnormalityArchitecturalDistortion-definitions.html#Observation.component:observedSize" target="_top">
<text x="96.75" y="41.25" text-anchor="middle">Quantity or Range</text>
</a>
</g>
</g>
<g>
<g transform="translate(462 667.5)">
<a href="StructureDefinition-MGAbnormalityArchitecturalDistortion-definitions.html#Observation.component:orientation" target="_top">
<rect fill="LightYellow" stroke="Black" stroke-width="1.875" x="0" y="0" width="172.5" height="52.5" rx="3.75" ry="3.75" />
</a>
<a href="StructureDefinition-MGAbnormalityArchitecturalDistortion-definitions.html#Observation.component:orientation" target="_top">
<text x="86.25" y="22.5" text-anchor="middle">Orientation</text>
</a>
<a href="StructureDefinition-MGAbnormalityArchitecturalDistortion-definitions.html#Observation.component:orientation" target="_top">
<text x="86.25" y="41.25" text-anchor="middle">CodeableConcept</text>
</a>
</g>
<line stroke="Black" stroke-width="1.875" marker-end="url(#arrowEnd)" x1="649.5" y1="684.375" x2="694.5" y2="684.375" />
<line stroke="Black" stroke-width="1.875" marker-start="url(#arrowStart)" x1="634.5" y1="693.75" x2="649.5" y2="693.75" />
<line stroke="Black" stroke-width="1.875" x1="649.5" y1="684.375" x2="649.5" y2="693.75" />
</g>
<g>
<g transform="translate(694.5 667.5)">
<rect fill="LightGreen" stroke="Black" stroke-width="1.875" x="0" y="0" width="225" height="33.75" rx="3.75" ry="3.75" />
<a href="./ValueSet-OrientationVS.html" target="_top">
<text x="112.5" y="22.5" text-anchor="middle">Orientation ValueSet</text>
</a>
</g>
</g>
<g>
<g transform="translate(462 727.5)">
<a href="StructureDefinition-MGAbnormalityArchitecturalDistortion-definitions.html#Observation.extension:serviceRecommendation" target="_top">
<rect fill="LightSkyBlue" stroke="Black" stroke-width="1.875" x="0" y="0" width="246" height="33.75" rx="3.75" ry="3.75" />
</a>
<a href="StructureDefinition-MGAbnormalityArchitecturalDistortion-definitions.html#Observation.extension:serviceRecommendation" target="_top">
<text x="123" y="22.5" text-anchor="middle">Service Recommentation</text>
</a>
</g>
<line stroke="Black" stroke-width="1.875" marker-end="url(#arrowEnd)" x1="722.99994" y1="753.75" x2="767.99994" y2="753.75" />
<line stroke="Black" stroke-width="1.875" marker-start="url(#arrowStart)" x1="707.99994" y1="744.375" x2="722.99994" y2="744.375" />
<line stroke="Black" stroke-width="1.875" x1="722.99994" y1="744.375" x2="722.99994" y2="753.75" />
</g>
<g>
<g transform="translate(767.99994 727.5)">
<rect fill="LightBlue" stroke="Black" stroke-width="1.875" x="0" y="0" width="246" height="52.5" rx="3.75" ry="3.75" />
<a href="./StructureDefinition-ServiceRecommendationExtension.html" target="_top">
<text x="123" y="22.5" text-anchor="middle">Service Recommendation</text>
</a>
<a href="./StructureDefinition-ServiceRecommendationExtension.html" target="_top">
<text x="123" y="41.25" text-anchor="middle">Extension</text>
</a>
</g>
</g>
<g>
<g transform="translate(462 787.5)">
<a href="StructureDefinition-MGAbnormalityArchitecturalDistortion-definitions.html#Observation.component:shape" target="_top">
<rect fill="LightYellow" stroke="Black" stroke-width="1.875" x="0" y="0" width="172.5" height="52.5" rx="3.75" ry="3.75" />
</a>
<a href="StructureDefinition-MGAbnormalityArchitecturalDistortion-definitions.html#Observation.component:shape" target="_top">
<text x="86.25" y="22.5" text-anchor="middle">Shape</text>
</a>
<a href="StructureDefinition-MGAbnormalityArchitecturalDistortion-definitions.html#Observation.component:shape" target="_top">
<text x="86.25" y="41.25" text-anchor="middle">CodeableConcept</text>
</a>
</g>
<line stroke="Black" stroke-width="1.875" marker-end="url(#arrowEnd)" x1="649.5" y1="813.75" x2="694.5" y2="813.75" />
<line stroke="Black" stroke-width="1.875" marker-start="url(#arrowStart)" x1="634.5" y1="813.75" x2="649.5" y2="813.75" />
<line stroke="Black" stroke-width="1.875" x1="649.5" y1="813.75" x2="649.5" y2="813.75" />
</g>
<g>
<g transform="translate(694.5 787.5)">
<rect fill="LightGreen" stroke="Black" stroke-width="1.875" x="0" y="0" width="99" height="52.5" rx="3.75" ry="3.75" />
<a href="./ValueSet-ShapeVS.html" target="_top">
<text x="49.5" y="22.5" text-anchor="middle">Shape</text>
</a>
<a href="./ValueSet-ShapeVS.html" target="_top">
<text x="49.5" y="41.25" text-anchor="middle">ValueSet</text>
</a>
</g>
</g>
</svg>
