<?xml version="1.0"?>
<!DOCTYPE svg PUBLIC "-//W3C//DTD SVG 1.1//EN" "http://www.w3.org/Graphics/SVG/1.1/DTD/svg11.dtd">
<svg xmlns="http://www.w3.org/2000/svg" version="1.1" width="921" height="142.5">
<defs>
<marker id="arrowStart" markerWidth="3.75" markerHeight="3.75" markerUnits="px" refX="1.875" refY="1.875">
<circle fill="Black" stroke-width="0" cx="1.875" cy="1.875" r="1.875" />
</marker>
<marker id="arrowEnd" markerWidth="7.5" markerHeight="7.5" markerUnits="px" refX="7.5" refY="3.75">
<polygon fill="Black" stroke-width="0" points="0 0 7.5 3.75 0 7.5" />
</marker>
</defs>
<g>
<g transform="translate(7.5 7.5)">
<rect fill="White" stroke="Black" stroke-width="1.875" x="0" y="0" width="277.5" height="33.75" rx="3.75" ry="3.75" />
<text x="138.75" y="22.5" text-anchor="middle">Imaging Context Extension</text>
</g>
<line stroke="Black" stroke-width="1.875" marker-end="url(#arrowEnd)" x1="330" y1="33.75" x2="375" y2="33.75" />
<text x="333.75" y="30" text-anchor="left">0..1</text>
<line stroke="Black" stroke-width="1.875" marker-end="url(#arrowEnd)" x1="330" y1="93.75" x2="375" y2="93.75" />
<text x="333.75" y="90" text-anchor="left">0..1</text>
<line stroke="Black" stroke-width="1.875" marker-start="url(#arrowStart)" x1="285" y1="24.375" x2="330" y2="24.375" />
<text x="288.75" y="20.625" text-anchor="left"></text>
<line stroke="Black" stroke-width="1.875" x1="330" y1="24.375" x2="330" y2="93.75" />
</g>
<g>
<g transform="translate(375 7.5)">
<a href="StructureDefinition-ImagingContextExtension-definitions.html#Extension.extension:studyUid" target="_top">
<rect fill="LightSalmon" stroke="Black" stroke-width="1.875" x="0" y="0" width="109.49999" height="52.5" rx="3.75" ry="3.75" />
</a>
<a href="StructureDefinition-ImagingContextExtension-definitions.html#Extension.extension:studyUid" target="_top">
<text x="54.749996" y="22.5" text-anchor="middle">Study Uid</text>
</a>
<a href="StructureDefinition-ImagingContextExtension-definitions.html#Extension.extension:studyUid" target="_top">
<text x="54.749996" y="41.25" text-anchor="middle">extension</text>
</a>
</g>
<line stroke="Black" stroke-width="1.875" marker-end="url(#arrowEnd)" x1="529.5" y1="24.375" x2="574.5" y2="24.375" />
<text x="533.25" y="20.625" text-anchor="left">0..1</text>
<line stroke="Black" stroke-width="1.875" marker-start="url(#arrowStart)" x1="484.5" y1="33.75" x2="529.5" y2="33.75" />
<text x="488.25" y="30" text-anchor="left"></text>
<line stroke="Black" stroke-width="1.875" x1="529.5" y1="24.375" x2="529.5" y2="33.75" />
</g>
<g>
<g transform="translate(574.5 7.5)">
<a href="./StructureDefinition-ImageStudyExtension.html" target="_top">
<rect fill="LightCyan" stroke="Black" stroke-width="1.875" x="0" y="0" width="235.5" height="33.75" rx="3.75" ry="3.75" />
</a>
<a href="./StructureDefinition-ImageStudyExtension.html" target="_top">
<text x="117.75" y="22.5" text-anchor="middle">Image Study Extension</text>
</a>
</g>
</g>
<g>
<g transform="translate(375 67.5)">
<a href="StructureDefinition-ImagingContextExtension-definitions.html#Extension.extension:seriesUid" target="_top">
<rect fill="LightSalmon" stroke="Black" stroke-width="1.875" x="0" y="0" width="120" height="52.5" rx="3.75" ry="3.75" />
</a>
<a href="StructureDefinition-ImagingContextExtension-definitions.html#Extension.extension:seriesUid" target="_top">
<text x="60" y="22.5" text-anchor="middle">Series Uid</text>
</a>
<a href="StructureDefinition-ImagingContextExtension-definitions.html#Extension.extension:seriesUid" target="_top">
<text x="60" y="41.25" text-anchor="middle">extension</text>
</a>
</g>
<line stroke="Black" stroke-width="1.875" marker-end="url(#arrowEnd)" x1="540" y1="84.375" x2="585" y2="84.375" />
<text x="543.75" y="80.625" text-anchor="left">0..1</text>
<line stroke="Black" stroke-width="1.875" marker-start="url(#arrowStart)" x1="495" y1="93.75" x2="540" y2="93.75" />
<text x="498.75" y="90" text-anchor="left"></text>
<line stroke="Black" stroke-width="1.875" x1="540" y1="84.375" x2="540" y2="93.75" />
</g>
<g>
<g transform="translate(585 67.5)">
<a href="./StructureDefinition-ImageSeriesExtension.html" target="_top">
<rect fill="LightCyan" stroke="Black" stroke-width="1.875" x="0" y="0" width="246" height="33.75" rx="3.75" ry="3.75" />
</a>
<a href="./StructureDefinition-ImageSeriesExtension.html" target="_top">
<text x="123" y="22.5" text-anchor="middle">Image Series Extension</text>
</a>
</g>
</g>
</svg>
